<?xml version="1.0" encoding="utf-8"?>
<COLLADA version="1.5.0" xmlns="http://www.collada.org/2008/03/COLLADASchema">
  <asset>
    <contributor />
    <unit meter="1" />
    <up_axis>Z_UP</up_axis>
  </asset>
  <library_lights />
  <library_materials />
  <library_effects />
  <library_cameras />
  <library_geometries>
    <geometry id="mesh_1">
      <mesh>
        <source id="mesh_1-position" name="position">
          <float_array id="mesh_1-position-array" count="954">-0.004269175231456757 -0.014949994161725044 -0.15325449407100677 -0.001994751626625657 -0.014950001612305641 -0.16026833653450012 -0.001994751626625657 -0.008919501677155495 -0.16026833653450012 -0.001994751626625657 0.008919497951865196 -0.16026833653450012 -0.001994751626625657 0.02005000412464142 -0.16026833653450012 -0.00337421172298491 0.008949995040893555 -0.1567511260509491 -0.004269175231456757 0.020049994811415672 -0.15325449407100677 -0.00337421172298491 -0.0089500043541193 -0.1567511260509491 -0.0034496712032705545 0.02005000412464142 -0.13864246010780334 -0.0034496712032705545 -0.014950001612305641 -0.13864246010780334 -0.0047641173005104065 0.02004999853670597 -0.1458977460861206 -0.0047641173005104065 -0.01495000347495079 -0.1458977311849594 0.013591744005680084 -0.0086214579641819 -0.19365465641021729 0.013591744005680084 -0.014950001612305641 -0.19365465641021729 0.013591744005680084 0.008621464483439922 -0.19365465641021729 0.013591744005680084 0.02004999853670597 -0.19365467131137848 0.014996916055679321 -0.014949998818337917 -0.19969788193702698 0.014996916055679321 -0.008572357706725597 -0.19969788193702698 0.013836279511451721 -0.014949997887015343 -0.20579278469085693 0.013836279511451721 -0.008531657978892326 -0.20579276978969574 0.010308399796485901 -0.014950002543628216 -0.2108965963125229 0.010308399796485901 -0.008506327867507935 -0.2108965963125229 0.005016855895519257 -0.014949996955692768 -0.21413610875606537 0.005016855895519257 -0.00850068312138319 -0.21413612365722656 -0.0011330024572089314 -0.014950000680983067 -0.2149571031332016 -0.0011330024572089314 -0.00851571373641491 -0.2149571031332016 -0.0070890262722969055 -0.01495000347495079 -0.21321909129619598 -0.0070890262722969055 -0.00854883249849081 -0.21321909129619598 -0.011832199990749359 -0.014950002543628216 -0.20921942591667175 -0.011832199990749359 -0.008594375103712082 -0.20921942591667175 -0.011832199990749359 0.008594372309744358 -0.20921942591667175 -0.011832199990749359 0.02005000226199627 -0.20921942591667175 -0.0070890262722969055 0.02005000226199627 -0.21321909129619598 -0.0070890262722969055 0.008548835292458534 -0.21321909129619598 -0.0011330024572089314 0.02005000412464142 -0.2149571031332016 -0.0011330024572089314 0.008515708148479462 -0.2149571180343628 0.005016855895519257 0.02005000226199627 -0.21413612365722656 0.005016855895519257 0.008500680327415466 -0.21413612365722656 0.010308399796485901 0.02005000412464142 -0.2108965963125229 0.010308399796485901 0.008506320416927338 -0.2108965963125229 0.013836279511451721 0.020049994811415672 -0.20579276978969574 0.013836279511451721 0.00853165052831173 -0.20579278469085693 0.014996916055679321 0.020049992948770523 -0.19969786703586578 0.014996916055679321 0.00857236236333847 -0.19969786703586578 -0.03229270130395889 -0.00885685347020626 -0.18296046555042267 -0.03229270130395889 -0.014949998818337917 -0.18296046555042267 -0.03229270130395889 0.008856858126819134 -0.18296046555042267 -0.03229270130395889 0.020049992948770523 -0.18296046555042267 -0.03830628842115402 0.008950005285441875 -0.17305925488471985 -0.03830628842115402 -0.00894999410957098 -0.17305925488471985 -0.04186151176691055 -0.014950001612305641 -0.16213159263134003 -0.04186151176691055 0.02005000039935112 -0.16213159263134003 -0.03828679770231247 0.02005000412464142 -0.1731017678976059 -0.03828679770231247 -0.014949998818337917 -0.1731017529964447 -0.04282649606466293 -0.01495000533759594 -0.15063410997390747 -0.04282649606466293 0.02005000039935112 -0.15063410997390747 -0.03798066824674606 0.02005000226199627 0.0012120661558583379 -0.03798066824674606 -0.014950001612305641 0.0012120680185034871 -0.036365412175655365 -0.014950000680983067 0.011025302112102509 -0.036365412175655365 0.02004999667406082 0.011025303043425083 -0.032259248197078705 -0.014949998818337917 0.020083339884877205 -0.032259248197078705 0.02004999853670597 0.020083341747522354 -0.025943465530872345 -0.014950000680983067 0.027765750885009766 -0.025943465530872345 0.02004999853670597 0.027765754610300064 -0.017850644886493683 -0.014949998818337917 0.03354630619287491 -0.017850644886493683 0.02004999667406082 0.03354630619287491 -0.008535109460353851 -0.014950000680983067 0.037029068917036057 -0.008535109460353851 0.02005000226199627 0.03702906519174576 0.0013650282053276896 -0.014950000680983067 0.03797547146677971 0.0013650282053276896 0.02004999853670597 0.037975478917360306 0.011171683669090271 -0.014949998818337917 0.036320704966783524 0.011171683669090271 0.02005000039935112 0.03632070869207382 0.020213112235069275 -0.014949999749660492 0.03217810019850731 0.020213112235069275 0.02004999853670597 0.03217810392379761 0.027870014309883118 -0.014949999749660492 0.025831418111920357 0.027870014309883118 0.02004999667406082 0.025831416249275208 0.03361792862415314 -0.014950001612305641 0.01771538145840168 0.03361792862415314 0.02005000226199627 0.01771537959575653 0.03706314414739609 -0.014950000680983067 0.008385904133319855 0.03706314414739609 0.02005000226199627 0.008385902270674706 0.037969671189785004 -0.014950000680983067 -0.0015179745387285948 0.037969671189785004 0.02004999667406082 -0.0015179734909906983 0.03627541661262512 -0.014949996955692768 -0.011317878030240536 0.03627541661262512 0.02005000039935112 -0.01131787896156311 -0.0011624620528891683 -0.08741845935583115 -0.015519136562943459 -0.0026999192778021097 -0.08115000277757645 -0.022235818207263947 7.3238517472873355E-09 -0.08745688199996948 -0.015520705841481686 0.0026999188121408224 -0.08115000277757645 -0.022235818207263947 -0.0018758700462058187 -0.08741845935583115 -0.015449143946170807 -0.005518577992916107 -0.08741845190525055 -0.014551295898854733 -0.007942847907543182 -0.08115000277757645 -0.020943552255630493 -0.008840568363666534 -0.08741845935583115 -0.012807779014110565 -0.012724153697490692 -0.08115000277757645 -0.018434125930070877 -0.011648781597614288 -0.08741845935583115 -0.010319921188056469 -0.016765989363193512 -0.08115000277757645 -0.014853372238576412 -0.013780005276203156 -0.08741845190525055 -0.007232306990772486 -0.019833452999591827 -0.08115000277757645 -0.010409396141767502 -0.015110395848751068 -0.08741845935583115 -0.00372437690384686 -0.02174825221300125 -0.08115000277757645 -0.005360463168472052 -0.015562616288661957 -0.08741845935583115 2.136418542075802E-10 -0.022399134933948517 -0.08115000277757645 9.876934686792183E-11 -0.015110395848751068 -0.08741845935583115 0.0037243773695081472 -0.02174825221300125 -0.08115000277757645 0.005360463168472052 -0.013780005276203156 -0.08741845935583115 0.007232306525111198 -0.019833452999591827 -0.08115000277757645 0.010409396141767502 -0.011648781597614288 -0.08741845190525055 0.010319921188056469 -0.016765989363193512 -0.08115000277757645 0.014853372238576412 -0.008840568363666534 -0.08741845190525055 0.01280777994543314 -0.012724153697490692 -0.08115000277757645 0.018434124067425728 -0.005518577992916107 -0.08741845190525055 0.014551295898854733 -0.007942847907543182 -0.08115000277757645 0.020943554118275642 -0.0018758700462058187 -0.08741845190525055 0.015449143946170807 -0.0026999192778021097 -0.08115000277757645 0.022235818207263947 0.001875869813375175 -0.08741845190525055 0.015449143946170807 0.0026999188121408224 -0.08115000277757645 0.022235818207263947 0.005518577992916107 -0.08741845190525055 0.014551295898854733 0.007942840456962585 -0.08115000277757645 0.020943554118275642 0.008840568363666534 -0.08741845190525055 0.01280777994543314 0.012724161148071289 -0.08115000277757645 0.018434124067425728 0.011648781597614288 -0.08741845190525055 0.010319921188056469 0.016765989363193512 -0.08115000277757645 0.014853372238576412 0.013780012726783752 -0.08741845935583115 0.007232306525111198 0.01983344554901123 -0.08115000277757645 0.010409396141767502 0.015110388398170471 -0.08741845935583115 0.0037243773695081472 0.02174825221300125 -0.08115000277757645 0.005360463168472052 0.015562616288661957 -0.08741845935583115 2.1364603142171035E-10 0.022399134933948517 -0.08115000277757645 9.877535595004261E-11 0.015110388398170471 -0.08741845935583115 -0.00372437690384686 0.02174825221300125 -0.08115000277757645 -0.005360463168472052 0.013780012726783752 -0.08741845190525055 -0.007232306990772486 0.01983344554901123 -0.08115000277757645 -0.010409396141767502 0.011648781597614288 -0.08741845935583115 -0.010319921188056469 0.016765989363193512 -0.08115000277757645 -0.014853372238576412 0.008840568363666534 -0.08741845935583115 -0.012807779014110565 0.012724161148071289 -0.08115000277757645 -0.018434125930070877 0.005518577992916107 -0.08741845190525055 -0.014551295898854733 0.007942840456962585 -0.08115000277757645 -0.020943552255630493 0.001875869813375175 -0.08741845935583115 -0.015449143946170807 0.0011624618200585246 -0.08741845935583115 -0.015519136562943459 0.021278351545333862 -0.08115000277757645 0.023632004857063293 0.01590000092983246 -0.08115000277757645 0.027539607137441635 0.009826742112636566 -0.08115000277757645 0.03024359606206417 0.00332400924526155 -0.08115000277757645 0.03162579610943794 -0.0033240097109228373 -0.08115000277757645 0.03162579610943794 -0.009826742112636566 -0.08115000277757645 0.03024359606206417 -0.01589999347925186 -0.08115000277757645 0.027539607137441635 -0.02127835899591446 -0.08115000277757645 0.023632004857063293 -0.025726743042469025 -0.08115000277757645 0.018691569566726685 -0.02905074506998062 -0.08115000277757645 0.012934225611388683 -0.03110509365797043 -0.08115000277757645 0.006611592136323452 -0.03179999440908432 -0.08115000277757645 9.876808398923131E-11 -0.03110509365797043 -0.08115000277757645 -0.006611591670662165 -0.02905074506998062 -0.08115000277757645 -0.012934224680066109 0.021278351545333862 -0.08115000277757645 -0.023632006719708443 0.025726743042469025 -0.08115000277757645 -0.018691571429371834 0.02905074506998062 -0.08115000277757645 -0.012934224680066109 0.03110509365797043 -0.08115000277757645 -0.006611591670662165 0.03180000185966492 -0.08115000277757645 9.877661882873312E-11 0.03110509365797043 -0.08115000277757645 0.006611592136323452 0.02905074506998062 -0.08115000277757645 0.012934225611388683 0.025726743042469025 -0.08115000277757645 0.018691569566726685 -0.025726743042469025 -0.08115000277757645 -0.018691571429371834 -0.02127835899591446 -0.08115000277757645 -0.023632006719708443 -0.01589999347925186 -0.08115000277757645 -0.027539607137441635 -0.009826742112636566 -0.08115000277757645 -0.03024359792470932 -0.0033240097109228373 -0.08115000277757645 -0.03162579610943794 0.00332400924526155 -0.08115000277757645 -0.03162579610943794 0.009826742112636566 -0.08115000277757645 -0.03024359792470932 0.01590000092983246 -0.08115000277757645 -0.027539607137441635 7.323849526841286E-09 -0.008747837506234646 5.408254746819274E-11 -0.023035429418087006 -0.008718458004295826 1.9169504872351695E-10 -0.02236606925725937 -0.008718455210328102 0.005512740463018417 -0.017242275178432465 -0.008718453347682953 0.015275317244231701 -0.013085611164569855 -0.008718458004295826 0.01895778812468052 -0.020396865904331207 -0.0087184589356184 0.010705098509788513 -0.0027766155544668436 -0.008718458004295826 0.02286747843027115 0.0027766150888055563 -0.008718458004295826 0.02286747843027115 -0.008168481290340424 -0.0087184589356184 0.021538501605391502 0.013085618615150452 -0.008718458004295826 0.01895778812468052 0.017242267727851868 -0.008718453347682953 0.015275317244231701 0.008168473839759827 -0.0087184589356184 0.021538501605391502 0.022366061806678772 -0.008718455210328102 0.005512740463018417 0.023035429418087006 -0.008718458004295826 1.9170123821687923E-10 0.02039685845375061 -0.0087184589356184 0.010705098509788513 0.02039685845375061 -0.008718457072973251 -0.010705098509788513 0.017242267727851868 -0.008718454279005527 -0.015275316312909126 0.022366061806678772 -0.008718453347682953 -0.005512740928679705 0.008168473839759827 -0.008718458004295826 -0.021538501605391502 0.0027766150888055563 -0.008718457072973251 -0.022867476567626 0.013085618615150452 -0.008718458004295826 -0.01895778626203537 -0.008168481290340424 -0.008718458004295826 -0.021538501605391502 -0.013085611164569855 -0.008718458004295826 -0.01895778626203537 -0.0027766155544668436 -0.008718457072973251 -0.022867476567626 -0.020396865904331207 -0.008718457072973251 -0.010705098509788513 -0.02236606925725937 -0.008718453347682953 -0.005512740928679705 -0.017242275178432465 -0.008718454279005527 -0.015275316312909126 -0.02236606925725937 -0.014950002543628216 0.0055127390660345554 -0.020396865904331207 -0.014949996955692768 0.010705097578465939 -0.017242275178432465 -0.014949999749660492 0.015275315381586552 -0.013085611164569855 -0.014949996024370193 0.01895778812468052 -0.008168481290340424 -0.014949996955692768 0.021538501605391502 -0.0027766155544668436 -0.014949997887015343 0.02286747470498085 0.0027766150888055563 -0.014949997887015343 0.02286747470498085 0.008168473839759827 -0.014949996955692768 0.021538501605391502 0.013085618615150452 -0.014949996024370193 0.01895778812468052 0.017242267727851868 -0.014949999749660492 0.015275315381586552 0.02039685845375061 -0.014949996955692768 0.010705097578465939 0.022366061806678772 -0.014950002543628216 0.0055127390660345554 0.023035429418087006 -0.014949996024370193 -7.631951737252507E-10 0.022366061806678772 -0.014949998818337917 -0.0055127390660345554 0.02039685845375061 -0.01495000347495079 -0.010705098509788513 0.017242267727851868 -0.014950000680983067 -0.015275316312909126 0.013085618615150452 -0.014949996955692768 -0.01895778998732567 0.008168473839759827 -0.01495000347495079 -0.021538499742746353 0.0027766150888055563 -0.01495000347495079 -0.022867476567626 -0.0027766155544668436 -0.01495000347495079 -0.022867476567626 -0.008168481290340424 -0.01495000347495079 -0.021538499742746353 -0.013085611164569855 -0.014949996955692768 -0.01895778998732567 -0.017242275178432465 -0.014950000680983067 -0.015275316312909126 -0.020396865904331207 -0.01495000347495079 -0.010705098509788513 -0.02236606925725937 -0.014949998818337917 -0.0055127390660345554 -0.023035429418087006 -0.014949996024370193 -7.632013354630374E-10 0.02488470822572708 -0.014950000680983067 -0.028718482702970505 0.01900000125169754 -0.01495000347495079 -0.03290896490216255 0.012428581714630127 -0.014949998818337917 -0.03591003268957138 0.005407966673374176 -0.014950002543628216 -0.03761321306228638 -0.03527798503637314 -0.014949996955692768 -0.01412317343056202 -0.03731328994035721 -0.014950001612305641 -0.007191546726971865 -0.037999995052814484 -0.014949996024370193 -7.632033338644817E-10 -0.0018081144662573934 -0.014950000680983067 -0.03795696049928665 -0.008958838880062103 -0.014949998818337917 -0.03692883998155594 -0.01578577607870102 -0.014950002543628216 -0.034566015005111694 -0.022042162716388702 -0.014949999749660492 -0.03095388598740101 -0.027501888573169708 -0.014949999749660492 -0.02622300200164318 -0.031967632472515106 -0.014949999749660492 -0.020544350147247314 -0.008958838880062103 -0.014950002543628216 0.03692883625626564 -0.0018081144662573934 -0.014950000680983067 0.03795695677399635 0.005407966673374176 -0.014949996955692768 0.037613216787576675 0.012428581714630127 -0.014950001612305641 0.03591003268957138 0.037827931344509125 -0.014949999749660492 -0.0036121292505413294 0.03646073490381241 -0.014950002543628216 -0.010705836117267609 0.03377574682235718 -0.014949996955692768 -0.017412608489394188 0.029870018362998962 -0.014950001612305641 -0.023490041494369507 -0.03731328994035721 -0.014949998818337917 0.007191546261310577 -0.03527798503637314 -0.01495000347495079 0.01412317343056202 -0.031967632472515106 -0.014950000680983067 0.020544350147247314 -0.027501888573169708 -0.014950000680983067 0.02622300013899803 -0.022042162716388702 -0.014950001612305641 0.03095388598740101 -0.01578577607870102 -0.014949996955692768 0.034566015005111694 0.01900000125169754 -0.014949996955692768 0.03290896490216255 0.02488470822572708 -0.014949998818337917 0.028718484565615654 0.029870018362998962 -0.014949998818337917 0.023490041494369507 0.03377574682235718 -0.014950002543628216 0.017412610352039337 0.03646073490381241 -0.014949997887015343 0.010705836117267609 0.037827931344509125 -0.014950000680983067 0.003612128784880042 -0.03731328994035721 -0.04194999858736992 0.007191547192633152 -0.03527798503637314 -0.04194999858736992 0.014123174361884594 -0.031967632472515106 -0.04195000231266022 0.020544352009892464 -0.027501888573169708 -0.04195000231266022 0.02622300386428833 -0.022042162716388702 -0.04194999858736992 0.030953887850046158 -0.01578577607870102 -0.04194999858736992 0.034566015005111694 -0.008958838880062103 -0.04194999858736992 0.03692883998155594 -0.0018081144662573934 -0.04195000231266022 0.03795696049928665 0.005407966673374176 -0.04194999858736992 0.037613216787576675 0.012428581714630127 -0.04194999858736992 0.03591003268957138 0.01900000125169754 -0.04194999858736992 0.03290896490216255 0.02488470822572708 -0.04195000231266022 0.028718482702970505 0.029870018362998962 -0.04194999858736992 0.023490041494369507 0.03377574682235718 -0.04195000231266022 0.017412608489394188 0.03646073490381241 -0.04194999858736992 0.010705835185945034 0.037827931344509125 -0.04195000231266022 0.0036121299490332603 0.037827931344509125 -0.04195000231266022 -0.0036121299490332603 0.03646073490381241 -0.04194999858736992 -0.010705837048590183 0.03377574682235718 -0.04194999858736992 -0.017412608489394188 0.029870018362998962 -0.04194999858736992 -0.023490041494369507 0.02488470822572708 -0.04194999858736992 -0.028718484565615654 0.01900000125169754 -0.04195000231266022 -0.03290896490216255 0.012428581714630127 -0.04194999858736992 -0.03591003268957138 0.005407966673374176 -0.04194999858736992 -0.03761321306228638 -0.0018081144662573934 -0.04194999858736992 -0.03795696049928665 -0.008958838880062103 -0.04194999858736992 -0.03692883998155594 -0.01578577607870102 -0.04194999858736992 -0.034566015005111694 -0.022042162716388702 -0.04194999858736992 -0.030953887850046158 -0.027501888573169708 -0.04194999858736992 -0.02622300386428833 -0.031967632472515106 -0.04195000231266022 -0.020544350147247314 -0.03527798503637314 -0.04194999858736992 -0.014123174361884594 -0.03731328994035721 -0.04194999858736992 -0.007191547192633152 -0.037999995052814484 -0.04195000231266022 -4.178511703312182E-11 -0.01589999347925186 -0.04194999858736992 0.027539609000086784 -0.02127835899591446 -0.04194999858736992 0.023632002994418144 -0.025726743042469025 -0.04194999858736992 0.018691571429371834 -0.02905074506998062 -0.04194999858736992 0.012934223748743534 -0.03110509365797043 -0.04195000231266022 0.006611593067646027 -0.03179999440908432 -0.04195000231266022 -4.178428436585335E-11 -0.03110509365797043 -0.04195000231266022 -0.006611591205000877 -0.02905074506998062 -0.04194999858736992 -0.012934224680066109 -0.025726743042469025 -0.04194999858736992 -0.018691571429371834 -0.02127835899591446 -0.04194999858736992 -0.023632004857063293 -0.01589999347925186 -0.04195000231266022 -0.027539607137441635 -0.009826742112636566 -0.04195000231266022 -0.03024359606206417 -0.0033240097109228373 -0.04194999858736992 -0.03162579610943794 0.00332400924526155 -0.04194999858736992 -0.03162579610943794 0.009826742112636566 -0.04195000231266022 -0.03024359606206417 0.01590000092983246 -0.04195000231266022 -0.027539607137441635 0.021278351545333862 -0.04194999858736992 -0.023632004857063293 0.025726743042469025 -0.04194999858736992 -0.018691571429371834 0.02905074506998062 -0.04194999858736992 -0.012934224680066109 0.03110509365797043 -0.04195000231266022 -0.006611591205000877 0.03180000185966492 -0.04195000231266022 -4.17757529957985E-11 0.03110509365797043 -0.04195000231266022 0.006611593067646027 0.02905074506998062 -0.04194999858736992 0.012934223748743534 0.025726743042469025 -0.04194999858736992 0.018691571429371834 0.021278351545333862 -0.04194999858736992 0.023632002994418144 0.01590000092983246 -0.04194999858736992 0.027539609000086784 0.009826742112636566 -0.04194999858736992 0.03024359419941902 0.00332400924526155 -0.04194999858736992 0.03162579610943794 -0.0033240097109228373 -0.04194999858736992 0.03162579610943794 -0.009826742112636566 -0.04194999858736992 0.03024359419941902 </float_array>
          <technique_common>
            <accessor source="#mesh_1-position-array" count="318" stride="3">
              <param name="X" type="float" />
              <param name="Y" type="float" />
              <param name="Z" type="float" />
            </accessor>
          </technique_common>
        </source>
        <source id="mesh_1-normal" name="normal">
          <float_array id="mesh_1-normal-array" count="1812">0.9512360692024231 -2.4160611289403278E-08 0.30846378207206726 0.9309583306312561 1.6597988761191118E-08 0.365125447511673 0.9510367512702942 -0.020469805225729942 0.30839917063713074 0.9687709808349609 -1.1548303646691238E-08 0.2479572296142578 0.9839818477630615 7.980110794392203E-09 -0.17826882004737854 0.9839817881584167 -2.7079984477040853E-08 -0.17826898396015167 0.9977445602416992 1.0196704813836277E-08 0.06712543219327927 0.9977445602416992 -7.398058277097164E-10 0.06712538003921509 0.9687709808349609 -2.7328055374198357E-09 0.24795715510845184 0.928182065486908 0.0740765631198883 0.36467891931533813 0.9061185121536255 -3.3133602528323536E-08 0.42302393913269043 0.9061185121536255 2.0071058770554373E-07 0.4230239689350128 0.9061185121536255 1.910702422946997E-07 0.42302387952804565 0.9061185717582703 1.922995096492741E-08 0.4230238199234009 0.9740161895751953 1.0745636558340266E-07 0.2264784276485443 0.9740161895751953 4.1160227226555435E-08 0.2264784872531891 0.9823473691940308 -3.399737025233662E-08 -0.18706588447093964 0.982347309589386 3.430590425068658E-07 -0.18706625699996948 0.8226089477539062 1.042763983605255E-06 -0.5686075091362 0.8226094841957092 1.524396679997153E-07 -0.5686067342758179 0.5221307873725891 2.2864750803819334E-07 -0.8528653979301453 0.522132396697998 -1.5461255316040479E-06 -0.8528644442558289 0.1323237419128418 -1.796920628294174E-06 -0.9912065267562866 0.13232146203517914 4.194430687221029E-07 -0.9912068843841553 -0.28012558817863464 4.0622194319439586E-07 -0.9599633812904358 -0.280124306678772 -8.707976348887314E-07 -0.9599637389183044 -0.6446456909179688 -6.934727139196184E-07 -0.7644814848899841 -0.6446466445922852 5.254611892269168E-07 -0.764480710029602 -0.6446456909179688 -2.331191950588618E-07 -0.7644814848899841 -0.6446465253829956 3.855882937386923E-07 -0.7644807696342468 -0.28012558817863464 4.841857048631937E-07 -0.9599633812904358 -0.28012600541114807 7.180714192145388E-07 -0.9599632620811462 0.1323215663433075 7.414422498186468E-07 -0.9912068247795105 0.13232384622097015 -4.966272513229342E-07 -0.9912065267562866 0.522132396697998 -4.273132674370572E-07 -0.8528644442558289 0.5221308469772339 5.639105324917182E-07 -0.8528653979301453 0.8226092457771301 3.759602975605958E-07 -0.5686070919036865 0.8226094245910645 1.92958069078486E-07 -0.5686067938804626 0.9823473691940308 6.348125225486001E-08 -0.18706588447093964 0.9823474287986755 -5.4084235756590715E-08 -0.18706566095352173 0.974016010761261 6.547941922008249E-08 0.22647911310195923 0.974016010761261 1.0229542368733746E-07 0.22647905349731445 -0.7888152599334717 4.2246250586686074E-07 -0.614630401134491 -0.7888152599334717 3.177811720433965E-07 -0.614630401134491 -0.7888152599334717 5.441712147558064E-08 -0.6146303415298462 -0.7888153195381165 -1.8742392171589017E-07 -0.6146302819252014 -0.9509386420249939 1.4408973569857153E-08 -0.30937954783439636 -0.950793981552124 0.0004832397971767932 -0.30982351303100586 -0.8544620275497437 -0.0004887910909019411 -0.5195136070251465 -0.8547053933143616 4.59603981539658E-08 -0.5191134214401245 -0.9507936835289001 -0.0008943101856857538 -0.3098234236240387 -0.8547088503837585 0.0009000480058602989 -0.519106924533844 -0.8544624447822571 2.6860291768571187E-07 -0.5195131897926331 -0.9509385824203491 -4.699638367355874E-08 -0.3093796670436859 -0.9964963793754578 -1.2704756358061786E-08 -0.08363606780767441 -0.9964963793754578 3.7439189526367045E-09 -0.08363601565361023 -0.9867226481437683 8.700592246668748E-09 0.1624143272638321 -0.9867226481437683 -4.5302050999396215E-09 0.1624142825603485 -0.9107874631881714 -1.1516291031909986E-08 0.41287553310394287 -0.7724681496620178 -1.7713475131131418E-08 0.6350535154342651 -0.7724683284759521 -8.016134245281137E-08 0.6350533366203308 -0.5812362432479858 -1.0271590156207822E-07 0.8137348294258118 -0.5812358260154724 5.732110963663217E-08 0.8137351870536804 -0.3501920998096466 6.598143897917907E-08 0.9366779327392578 -0.3501918315887451 1.4228625389023364E-07 0.9366779923439026 -0.09516116231679916 1.5121584340249683E-07 0.9954618811607361 -0.09516213089227676 -1.25654878502246E-07 0.9954617619514465 0.16638728976249695 -1.2446817265754362E-07 0.9860605001449585 0.41653960943222046 -1.1475584216213974E-07 0.909117579460144 0.6381604671478271 -9.718315396867183E-08 0.7699034214019775 0.6381608843803406 5.42334888109508E-08 0.7699030637741089 0.8160693645477295 4.0712222926231334E-08 0.5779539942741394 0.8160693049430847 3.096121048429268E-08 0.5779540538787842 0.9380806088447571 1.8557690495413226E-08 0.34641706943511963 0.9958370327949524 4.883020654489201E-09 0.09115147590637207 0.9958370327949524 -2.5424755634162466E-09 0.09115150570869446 0.9853823184967041 4.751768312161175E-09 -0.17035764455795288 0.9853823184967041 -3.624277766789419E-09 -0.1703576147556305 0.954616129398346 1.3332600801163608E-08 -0.29783889651298523 0.954616129398346 -6.336383862048933E-09 -0.29783889651298523 -0.9994911551475525 1.7087046222385993E-09 0.031896501779556274 -0.9994911551475525 -1.4278325188854524E-09 0.031896501779556274 1.0432350450173544E-07 1 -6.034860575709899E-07 1.8725749839632044E-08 1 8.439351972810982E-08 3.187269896898215E-07 1 -6.011655386828352E-07 1.2003567917417968E-07 1 2.4024410549827735E-07 -4.3222763679295895E-07 1 1.1868072533616214E-06 2.992859151618177E-07 1 -8.818626042739197E-07 -4.1151039908982057E-07 1 6.717463207905894E-08 2.4880557702999795E-07 1 -6.552566134132576E-08 2.349506473819929E-07 1 -4.289463007012273E-08 1.3260537556902818E-08 1 -3.176299756546541E-08 8.467568335390752E-08 1 1.2410397687290242E-07 -3.4691524319896416E-07 1 -5.62963975880848E-07 2.3960833459568676E-06 1 -2.765837052720599E-07 3.0143651201797184E-06 1 -2.641277490056382E-07 -9.74979172951862E-08 1 5.9231840765505694E-08 3.286160676907457E-08 1 -1.478457001269362E-08 9.279140300577637E-08 1 3.4037677210108086E-07 1.0044598042213693E-07 1 5.533289026971033E-07 -1.2310280794736173E-08 1 -1.1489733253711165E-07 3.5722300140150764E-07 1 2.865382384698023E-07 -2.3896885181784455E-07 1 -2.6604425329423975E-07 7.208161889593612E-08 1 -4.5753104416235146E-08 -3.226703597647429E-07 1 3.7133699493097083E-07 2.403650114501943E-07 1 1.356133338958898E-07 -2.6322385338062304E-07 1 4.837057758777519E-07 2.4742764708207687E-06 1 2.533089855205617E-06 -3.847297875836375E-07 1 -1.1678765332590046E-07 -1.3209155440563336E-06 1 -7.798099090905453E-07 -5.2663651217699226E-08 -1 1.0252842912450433E-06 7.590641075694293E-07 -1 -3.2424284768239886E-07 2.6236523353873054E-07 -1 -3.087877189500432E-07 1.9939879791763815E-07 -1 -1.2352987823760486E-06 2.234287066471552E-08 -1 1.875536099760211E-07 7.312819150229188E-08 -1 2.0790638544099238E-08 7.033332138917103E-08 -1 2.0100566544556386E-08 -5.318716134183887E-09 -1 -4.2823529611268896E-07 8.804820872398977E-09 -1 -3.5315643742706015E-08 7.578541350028445E-09 -1 -2.248782493552426E-08 1.6866265184489748E-07 -1 -1.5061111469094612E-07 2.2075278494071426E-08 -1 6.272665498130436E-09 -2.7526886015039054E-07 -1 2.5072259290936927E-07 2.2026030421784526E-07 -1 -5.7774322215209395E-08 -5.606910917776986E-07 -1 2.962432574804552E-07 -3.846070129043255E-08 -1 1.3791269282137364E-07 1.1292156614217674E-06 -1 -3.4490428788558347E-06 -1.5289925769934598E-08 -1 -2.2414492661937402E-07 7.618306767653849E-07 -1 1.2249716974110925E-06 6.479756109456503E-08 -1 8.331072649525595E-07 2.2074731020893523E-07 -1 -3.3508783303659584E-07 -4.599602121402313E-08 -1 1.006182444029946E-07 -7.508051425020312E-08 -1 -2.417162292545072E-08 -4.170204093156826E-08 -1 -6.873770530546608E-08 4.585364976605888E-09 -1 -1.9963536601608212E-07 -4.609474757444332E-08 -1 2.1037040198734758E-07 2.173181634645971E-08 -1 2.895109929568207E-08 -3.281368421426123E-08 -1 1.3145725574759126E-07 -0.003421718254685402 0.9999672770500183 0.007329307496547699 -0.0034213114995509386 0.9999672770500183 0.007328764069825411 -0.0034217224456369877 0.9999672770500183 0.007329931017011404 -0.0034179051872342825 0.9999673366546631 0.007325293961912394 -0.00342186214402318 0.9999672770500183 0.007329336367547512 -0.003421633969992399 0.9999672770500183 0.007328963838517666 -0.003421520348638296 0.9999672770500183 0.007328643463551998 -0.0034217711072415113 0.9999672770500183 0.007329053245484829 -0.003421712899580598 0.9999672770500183 0.007328889332711697 -0.003422458888962865 0.9999672770500183 0.007330107502639294 -0.003422162961214781 -0.9999672770500183 0.007330829743295908 -0.00342102674767375 -0.9999672770500183 0.007327628321945667 -0.003422748763114214 -0.9999672770500183 0.007330440916121006 -0.003423004876822233 -0.9999672770500183 0.00733116315677762 -0.003421000437811017 -0.9999672770500183 0.007327888626605272 -0.0034215166233479977 -0.9999672770500183 0.007329343352466822 -0.0034216796047985554 -0.9999672770500183 0.007329609710723162 -0.003421809058636427 -0.9999672770500183 0.007329054642468691 -0.0034218120854347944 -0.9999672770500183 0.007329058833420277 -0.003421651665121317 -0.9999672770500183 0.00732860341668129 0.4230237603187561 4.2201371286409994E-08 -0.9061185717582703 -0.025168418884277344 -0.7337150573730469 -0.6789909601211548 9.374926101266348E-14 -0.7289160490036011 -0.6846030950546265 -0.0659986287355423 -0.7369763851165771 -0.6726886034011841 -0.16237683594226837 -0.7345965504646301 -0.6587880253791809 -0.16237647831439972 -0.7345966696739197 -0.6587880253791809 -0.3153167963027954 -0.7345967292785645 -0.6007853150367737 -0.3153170943260193 -0.7345966100692749 -0.6007852554321289 -0.44993123412132263 -0.7345966100692749 -0.5078678727149963 -0.4499312937259674 -0.7345965504646301 -0.5078678131103516 -0.5583983063697815 -0.7345965504646301 -0.3854338824748993 -0.558397114276886 -0.7345969676971436 -0.38543471693992615 -0.6344112753868103 -0.7345972061157227 -0.2406020164489746 -0.6344130039215088 -0.7345963716506958 -0.24060000479221344 -0.6735574007034302 -0.7345962524414062 -0.08178462088108063 -0.6735571026802063 -0.7345964908599854 -0.08178526908159256 -0.6735571622848511 -0.7345965504646301 0.08178459852933884 -0.6735572814941406 -0.734596312046051 0.08178531378507614 -0.6344122886657715 -0.7345961928367615 0.2406022548675537 -0.6344123482704163 -0.7345969676971436 0.24059976637363434 -0.5583977103233337 -0.7345970273017883 0.38543379306793213 -0.5583974123001099 -0.7345966100692749 0.38543498516082764 -0.4499313533306122 -0.7345965504646301 0.5078677535057068 -0.44993141293525696 -0.7345966100692749 0.507867693901062 -0.315316766500473 -0.7345966100692749 0.600785493850708 -0.3153170645236969 -0.7345967292785645 0.6007851362228394 -0.1623767614364624 -0.7345967292785645 0.6587878465652466 -0.1623765081167221 -0.7345966100692749 0.6587880253791809 -8.908959724454601E-14 -0.7345966696739197 0.6785040497779846 0.1623767763376236 -0.7345966100692749 0.6587879657745361 0.16237671673297882 -0.7345966100692749 0.6587879657745361 0.315316766500473 -0.7345966100692749 0.600785493850708 0.3153162896633148 -0.7345967292785645 0.6007855534553528 0.44993114471435547 -0.734596848487854 0.5078675150871277 0.4499318599700928 -0.7345966100692749 0.5078672766685486 0.5583974719047546 -0.7345966100692749 0.38543495535850525 0.5583980679512024 -0.7345963716506958 0.38543450832366943 0.6344131231307983 -0.7345962524414062 0.2405998706817627 0.634412407875061 -0.7345966100692749 0.24060072004795074 0.6735568046569824 -0.7345967292785645 0.0817859023809433 0.6735571026802063 -0.7345964908599854 0.08178529143333435 0.6735570430755615 -0.7345964312553406 -0.08178592473268509 0.673556923866272 -0.7345966696739197 -0.08178524672985077 0.6344126462936401 -0.7345966696739197 -0.2405998408794403 0.6344126462936401 -0.7345963716506958 -0.2406007945537567 0.5583977699279785 -0.7345963716506958 -0.3854348957538605 0.5583979487419128 -0.7345965504646301 -0.3854343593120575 0.449931263923645 -0.7345965504646301 -0.5078678727149963 0.4499315917491913 -0.7345967888832092 -0.5078672170639038 0.315316766500473 -0.7345967888832092 -0.6007852554321289 0.3153163492679596 -0.7345965504646301 -0.6007857322692871 0.16237682104110718 -0.7345965504646301 -0.6587880253791809 0.16237673163414001 -0.7345965504646301 -0.6587880849838257 0.0659986287355423 -0.7369763851165771 -0.6726886034011841 0.02516874298453331 -0.7337151169776917 -0.6789909601211548 3.554734107069635E-08 -1 1.7679722574825973E-08 7.218864794822366E-08 -1 -4.262114217112867E-08 -7.962908910030819E-08 -1 1.0330344579756456E-08 -8.708752119446217E-08 -1 1.9327837108562562E-08 1.1336089755786816E-07 -1 -2.1276825634686247E-08 9.718419136106604E-08 -1 -6.879756764277545E-09 2.624858330026853E-15 -1 -4.2055914306615705E-10 2.624858330026853E-15 -1 -4.205591985773083E-10 -1.1659135878971938E-07 -1 -8.169624976517298E-09 -9.491810715189786E-08 -1 -1.7540809693628034E-08 7.60776472930047E-08 -1 1.7097514515285184E-08 8.955257868592525E-08 -1 1.3791489728021133E-08 -7.218848452339444E-08 -1 -4.262108532770981E-08 -3.554727356913645E-08 -1 1.7679726127539652E-08 9.913583731702147E-09 -1 4.104739304011673E-08 -1.0963725038948269E-08 -1 -7.693292225496862E-09 -9.590289806737928E-08 -1 -6.813287711793237E-08 -8.71966463478202E-08 -1 -3.6349323551121415E-08 2.013449673654577E-08 -1 6.71375346428249E-08 2.2936905708093036E-08 -1 8.809595897218969E-08 2.624850494972091E-15 -1 5.789328838545771E-08 2.6248676473892727E-15 -1 -6.963306731222474E-08 5.681931725121103E-08 -1 3.6912400247501864E-08 4.59213502779221E-08 -1 1.184152651489967E-07 2.3976928886781934E-08 -1 5.328561769601947E-08 2.6717620116301077E-08 -1 4.32802806926702E-08 -1.1026134671965337E-07 -1 -1.880450355429275E-07 -1.0749156587053221E-07 -1 -1.86621321063285E-07 -1.3055993619559558E-08 -1 3.385029856417532E-08 -3.3233565233103946E-08 -1 1.9492663483333672E-08 -9.880496421033058E-09 -1 1.0474684586370131E-07 -5.3353701900960004E-08 -1 6.283071485313485E-08 -6.993041523628563E-08 -1 -6.114191819506232E-08 2.6248540948621167E-15 -1 3.094049816354527E-08 2.6248460480491178E-15 -1 9.08810164901297E-08 -1.8636503895663736E-08 -1 5.593450680407841E-08 -1.7847053834785243E-09 -1 -7.009535352153762E-08 5.23939114316363E-08 -1 9.070344475503589E-08 6.847337630233596E-08 -1 3.2002748895365585E-08 4.855993651631252E-08 -1 -9.546633350510092E-08 -9.91357396173953E-09 -1 4.1047382381975694E-08 2.1987103693277277E-08 -1 1.2999518794742926E-08 1.0749162271395107E-07 -1 -1.8662143475012272E-07 1.1026115487311472E-07 -1 -1.880450213320728E-07 8.370419024572584E-09 -1 -2.036241042446818E-08 -1.662242077316023E-08 -1 -1.164532736908086E-08 -2.535164433936643E-08 -1 -1.1148344469802396E-09 4.67525538283553E-08 -1 -1.5720859281032062E-08 3.194671549522354E-08 -1 -2.543848243163893E-09 -4.970947387050728E-08 -1 -3.724422992235077E-09 -2.987264480225349E-08 -1 -1.230155000087052E-08 1.2465544152462371E-08 -1 -3.7251410844874044E-09 2.823655798067648E-08 -1 -7.594512574371493E-09 -8.37043234724888E-09 -1 -2.0362417529895538E-08 0.0012753752525895834 0.9999991655349731 -0.00015533770783804357 0.0008526254678145051 0.9999991655349731 -0.0009611825225874782 0.0010568340076133609 0.9999991655349731 -0.0007306784973479807 0.0012015097308903933 0.9999991655349731 -0.0004550216835923493 -2.452512959765494E-15 0.9999991655349731 -0.0012847554171457887 0.0003073174157179892 0.9999991655349731 -0.0012474402319639921 0.0005971610662527382 0.9999991655349731 -0.0011375168105587363 -0.0008526275050826371 0.9999991655349731 -0.0009611814166419208 -0.0005971597856841981 0.9999991655349731 -0.0011375179747119546 -0.0003073178813792765 0.9999991655349731 -0.001247440348379314 -0.0012753760674968362 0.9999991655349731 -0.00015533954137936234 -0.0012015108950436115 0.9999991655349731 -0.0004550220910459757 -0.0010568348225206137 0.9999991655349731 -0.0007306790794245899 -0.0010571111924946308 0.9999991655349731 0.0007302891463041306 -0.0012016408145427704 0.9999991655349731 0.0004549110308289528 -0.0012753760674968362 0.9999991655349731 0.00015575563884340227 -0.00030741968657821417 0.9999991655349731 0.0012474494287744164 -0.0005970597849227488 0.9999991655349731 0.0011376035399734974 -0.0008524119039066136 0.9999991655349731 0.000961346726398915 0.000597061007283628 0.9999991655349731 0.0011376023758202791 0.00030741922091692686 0.9999991655349731 0.0012474491959437728 -2.797202217980554E-15 0.9999991655349731 0.0012847768375650048 0.001201639766804874 0.9999991655349731 0.00045491059427149594 0.0010571102611720562 0.9999991655349731 0.0007302885642275214 0.0008524098666384816 0.9999991655349731 0.0009613478323444724 0.0012753752525895834 0.9999991655349731 0.00015575381985399872 -0.9927090406417847 -2.989234459960244E-08 0.12053531408309937 -0.9350161552429199 -8.794084749297326E-08 0.354605108499527 -0.9350161552429199 -5.4338297417189096E-08 0.35460513830184937 -0.8229840993881226 -8.704795106950769E-08 0.5680643916130066 -0.8229841589927673 -1.4087800082052127E-07 0.5680643320083618 -0.6631215810775757 -1.8562832337920554E-07 0.7485116720199585 -0.6631215214729309 -1.1469899163785158E-07 0.7485117316246033 -0.46472376585006714 -1.3568374868100364E-07 0.8854557275772095 -0.23931527137756348 -1.4878331455747684E-07 0.9709419012069702 -0.23931585252285004 -6.850406748526439E-07 0.9709417819976807 -1.3414482469709804E-13 -7.055424475765903E-07 1 0.23931558430194855 -6.850406748526439E-07 0.9709418416023254 0.2393161654472351 -1.487832861357674E-07 0.9709417223930359 0.4647226631641388 -1.3568383394613193E-07 0.8854562640190125 0.6631229519844055 -1.1469879979131292E-07 0.7485105395317078 0.6631228923797607 -1.8562803916211124E-07 0.7485105395317078 0.8229840993881226 -1.4087801503137598E-07 0.5680643916130066 0.8229841589927673 -8.704793685865297E-08 0.5680643320083618 0.9350161552429199 -5.433828675904806E-08 0.354605108499527 0.9350161552429199 -8.794085459840062E-08 0.35460513830184937 0.9927088618278503 -2.989267144926089E-08 0.12053664773702621 0.9927088618278503 -1.8470556639726965E-08 0.12053664028644562 0.9927088618278503 1.8470567297868E-08 -0.1205366775393486 0.9927088618278503 -3.668041514970355E-08 -0.12053661048412323 0.9350161552429199 -1.079096421108261E-07 -0.354605108499527 0.9350160956382751 -9.984389315320641E-09 -0.35460519790649414 0.8229840993881226 -1.5994622515336232E-08 -0.5680643916130066 0.6631230115890503 -2.107532637296572E-08 -0.7485104203224182 0.6631227731704712 3.214024673070526E-07 -0.7485106587409973 0.4647223949432373 3.802055061896681E-07 -0.8854564428329468 0.4647229015827179 -1.4719189778134023E-07 -0.8854561448097229 0.23931586742401123 -1.6140241143602907E-07 -0.9709417819976807 0.23931573331356049 -2.7338185049075037E-08 -0.9709417819976807 1.3414482469709804E-13 -2.8156359022091237E-08 -1 -0.23931556940078735 -2.7338188601788715E-08 -0.9709418416023254 -0.23931542038917542 -1.6140242564688378E-07 -0.9709419012069702 -0.46472349762916565 -1.4719184093792137E-07 -0.885455846786499 -0.46472400426864624 3.802051367074455E-07 -0.8854556083679199 -0.6631217002868652 3.214028652109846E-07 -0.7485116124153137 -0.6631214022636414 -2.1075370781886704E-08 -0.7485118508338928 -0.8229840993881226 -1.599462784440675E-08 -0.5680643916130066 -0.9350161552429199 -9.98439109167748E-09 -0.354605108499527 -0.9350160956382751 -1.0790967763796289E-07 -0.35460519790649414 -0.9927090406417847 -3.668003500933992E-08 -0.12053535133600235 -0.9927090406417847 1.8470350582333595E-08 -0.12053529173135757 -0.9927090406417847 -1.847036124047463E-08 0.12053532898426056 6.382448418662534E-07 1 3.21599941344175E-07 -1.3377212226828306E-08 1 -4.661050070353667E-07 -8.87982878339244E-07 1 -8.368804174097022E-07 4.0465351958118845E-07 1 3.9448775623895926E-07 -7.894412590303546E-08 1 2.5113641299867595E-07 -4.415659873302502E-07 1 -1.7216967407307493E-08 -2.6248665885980887E-15 1 6.15797191017009E-08 5.66333540064079E-07 1 -7.34200341412361E-07 -2.8918481120854267E-07 1 5.487059979714104E-07 -1.8553575387159071E-07 1 -3.7413084896797955E-07 -2.6247588036555506E-15 1 -7.424874866046594E-07 -2.6249959728807818E-15 1 1.0263403282806394E-06 2.780174952476955E-07 1 2.158925838102732E-07 2.1714944864470453E-07 1 2.1198583510795288E-07 8.375025828399885E-08 1 2.706361499349441E-07 -4.1833013142422715E-07 1 2.9642006893482176E-07 1.0363710316596553E-06 1 -5.541557470678526E-07 2.519271049550298E-07 1 -4.18449843664348E-07 -6.784631523260032E-07 1 2.7620012588158716E-07 -1.271253591283994E-08 1 7.238510590923397E-08 -3.4298653872610885E-07 1 3.819010601091577E-07 1.814583328041408E-07 1 1.417788979551915E-07 4.3309970010341203E-07 1 -1.5414636322930164E-07 2.7069553709679894E-08 1 3.573785249955108E-07 -2.8088834369555116E-07 1 2.2198165083864296E-07 -2.624885646839402E-15 1 2.0395314948018495E-07 -5.332539672053827E-07 1 4.1931343730539083E-08 -1.2287043205105874E-07 1 -3.13008676755544E-08 6.744257348145766E-07 1 1.0561861785163273E-07 1.3155012190679827E-08 1 3.01637044231029E-07 1.2664804671658203E-07 1 -3.6698082794828224E-07 1.3644554996972147E-07 1 -4.4668564669336774E-07 -4.2661486787665126E-08 1 -9.328031183031271E-07 -4.2578026437922745E-08 1 8.834352343001228E-07 -1.3025417899825698E-07 1 7.08555205619632E-07 -2.932853249149048E-07 1 -5.526067070604768E-07 6.247859829500158E-08 1 -5.723142404434611E-09 2.600110917683196E-07 1 2.8895848913634836E-07 2.8918481120854267E-07 1 5.487059979714104E-07 -5.66333540064079E-07 1 -7.34200341412361E-07 -4.2170066194557876E-07 1 -1.0451889664864211E-07 1.2177201824670192E-07 1 5.345942781787016E-07 -5.450826634501027E-08 1 4.1944190343201626E-08 -5.391343620431144E-07 1 -4.122227323932748E-07 -1.9379197624402877E-07 1 2.730361643443757E-07 -5.3226045793053345E-08 1 3.7798579910486296E-07 -4.802231501344068E-07 1 -2.51199480771902E-07 6.119714726082748E-07 1 3.874156675465201E-07 -5.381683649829938E-07 1 2.802687788516778E-07 3.0536179451701173E-07 1 -7.733258655662212E-08 5.615074769593775E-07 1 -3.8697092463735316E-07 -1.2468477450511273E-07 1 3.1293305724489073E-09 -3.6237918266124325E-07 1 3.685152876187203E-07 6.07893696269457E-07 1 -3.5042017998421215E-07 7.629230935890519E-07 1 -6.596437174266612E-07 -5.063878347755235E-07 1 5.573810426540149E-07 -6.500898734884686E-07 1 9.474051694269292E-07 3.8193795148799836E-07 1 -3.467756926056609E-07 2.5675987558315683E-07 1 1.6585727280471474E-07 -0.9954719543457031 3.579260887676128E-09 0.09505544602870941 -0.9594931602478027 1.0608469658279773E-08 0.2817319929599762 -0.9594931602478027 1.3689293254515178E-08 0.2817319929599762 -0.8888351321220398 2.226515150027808E-08 0.45822709798812866 -0.8888351321220398 4.645966455996131E-08 0.4582271873950958 -0.7860528826713562 6.267518415370432E-08 0.6181592345237732 -0.6548610329627991 7.662544021513895E-08 0.7557492852210999 -0.6548611521720886 3.6721687024510175E-08 0.7557492256164551 -0.5000001788139343 4.207997861271906E-08 0.8660253286361694 -0.5000003576278687 -2.2586856829320823E-08 0.8660252094268799 -0.32706767320632935 -2.4646626073376865E-08 0.945000946521759 -0.32706740498542786 4.591738900217024E-08 0.9450010061264038 -0.14231516420841217 4.8095202487274946E-08 0.9898213744163513 -0.14231497049331665 1.0035802233687718E-07 0.9898214340209961 0.04758189618587494 1.0127519090019632E-07 0.9988673329353333 0.047581423074007034 -2.6051520052305932E-08 0.9988673329353333 0.23575906455516815 -2.5345874732352058E-08 0.9718115329742432 0.23575933277606964 4.7220105159340164E-08 0.9718114733695984 0.4154151678085327 4.419881705075568E-08 0.9096319079399109 0.4154149293899536 -2.3724165743033154E-08 0.9096320271492004 0.58005690574646 -2.1245002201908392E-08 0.8145759105682373 0.7237339615821838 -1.7997992429741316E-08 0.6900790929794312 0.8412535786628723 -1.4100480782985869E-08 0.5406407117843628 0.8412535190582275 -4.26464588088038E-08 0.5406407713890076 0.9283678531646729 -2.931723663834873E-08 0.37166261672973633 0.9283679127693176 -9.693351010753304E-09 0.37166255712509155 0.9819287657737732 -4.935859276855581E-09 0.18925081193447113 0.9819287657737732 7.126142342883668E-09 0.18925076723098755 1 2.624858330026853E-15 1.3414482469709804E-13 0.9819287657737732 4.935863717747679E-09 -0.18925078213214874 0.9819287657737732 2.8663516005167367E-09 -0.18925076723098755 0.9283678531646729 5.629120281014366E-09 -0.3716626465320587 0.9283678531646729 -2.1507018388433607E-09 -0.3716626465320587 0.8412535786628723 -3.128529435514338E-09 -0.5406407117843628 0.8412535190582275 1.78797474603698E-08 -0.5406407713890076 0.7237340211868286 2.2821879497314512E-08 -0.6900790333747864 0.7237340211868286 2.144742339282857E-08 -0.6900790333747864 0.58005690574646 2.5316746032899573E-08 -0.8145759701728821 0.58005690574646 1.8827064351967238E-08 -0.8145759701728821 0.4154151380062103 2.1024066043651146E-08 -0.9096319675445557 0.41541507840156555 3.55180382882736E-08 -0.9096319675445557 0.23575888574123383 3.794594150008379E-08 -0.9718115925788879 0.04758201539516449 3.900237643961191E-08 -0.9988673329353333 -0.1423148512840271 3.864916564566556E-08 -0.9898214340209961 -0.1423148214817047 3.0763313674242454E-08 -0.9898214340209961 -0.32706785202026367 2.9370303522568975E-08 -0.9450008869171143 -0.32706788182258606 3.87812661983844E-08 -0.9450008273124695 -0.5000001788139343 3.5540239196052426E-08 -0.8660252690315247 -0.5000001788139343 2.6915770945379336E-08 -0.8660253286361694 -0.6548610925674438 2.3488427203233186E-08 -0.7557492852210999 -0.6548611521720886 3.553045146986733E-08 -0.7557492256164551 -0.786052942276001 2.9061851591904997E-08 -0.6181591749191284 -0.7860528826713562 -8.501950254924395E-09 -0.6181592345237732 -0.8888351321220398 -6.302300459282151E-09 -0.4582271873950958 -0.8888351321220398 1.195104637474742E-08 -0.45822712779045105 -0.9594931602478027 7.3478663153991874E-09 -0.2817319929599762 -0.9594931602478027 4.2670462718774615E-09 -0.2817319929599762 -0.9954719543457031 1.4396854819409555E-09 -0.09505544602870941 -0.9954719543457031 -2.5398072533988625E-09 -0.0950554609298706 -0.9954719543457031 2.5398014802391344E-09 0.09505543857812881 -1.9431466569130862E-07 -1 1.6000980451735813E-07 3.956134833060787E-07 -1 2.2154988243983098E-07 1.7478303959705954E-07 -1 -3.0888040214449575E-07 3.434062136875582E-07 -1 -2.69136222641464E-07 3.928224430183036E-07 -1 -1.0268297501170309E-07 4.358343730359593E-08 -1 -2.3654285996599356E-07 1.2547042160804267E-07 -1 1.9234802550727181E-07 -1.8477963692475896E-07 -1 1.999552878828581E-08 -1.7449036704419996E-07 -1 1.301383747431828E-07 2.624822966401305E-15 -1 2.6390890184302407E-07 2.6248576947521425E-15 -1 3.987704833008365E-09 -3.354302293701039E-07 -1 -3.4581589147819614E-07 -3.337949863180256E-07 -1 -3.633206517861254E-07 -1.3203529647398682E-07 -1 -7.30295326434316E-08 -1.315373197030567E-07 -1 -7.563775739072298E-08 6.899195881260312E-08 -1 3.4361295320195495E-07 1.2025523687952955E-07 -1 1.7093810811275034E-07 -1.2860628828548215E-07 -1 -6.906054181854415E-07 -4.0358150954489247E-07 -1 -3.0119970517716865E-08 -4.7675550263193145E-07 -1 -6.749283443241438E-07 -6.848537736914295E-07 -1 -3.005669952926837E-07 1.7490943093889655E-07 -1 -2.865911596927617E-07 3.5304753964737756E-07 -1 -5.321784328771173E-07 1.5102696693247708E-07 -1 -5.584055315921432E-07 -2.223718666982677E-07 -1 -1.6164496230430814E-07 2.624872941345193E-15 -1 -1.0840160058478432E-07 -2.9451024374793633E-07 -1 1.30332267644917E-07 -2.972221864183666E-07 -1 1.2938836846387858E-07 5.354779091248929E-07 -1 -3.6989322893532517E-07 -2.353856309866842E-08 -1 -6.26575115347805E-07 -3.2949230899248505E-07 -1 -4.996886104891018E-07 4.272950206996029E-07 -1 -6.275724473425726E-08 3.637187262484076E-07 -1 -4.7143387860160146E-08 2.2845772207347181E-07 -1 -1.4304457351954625E-07 7.56150129177513E-08 -1 -1.302092300647928E-07 1.3589941261216154E-07 -1 -7.815621216877844E-08 3.3018753242686216E-07 -1 -6.307684685680215E-08 1.1346708106430015E-07 -1 -2.9173176585572946E-07 3.043446383799164E-08 -1 -3.122623581930384E-07 2.5195475927830557E-07 -1 -2.2493882312346614E-08 -5.269088632076091E-08 -1 -1.5511986362071184E-07 2.624867223872799E-15 -1 -6.718920531056938E-08 -1.0090050039934795E-07 -1 1.0119375559725086E-07 -3.6330132235917745E-09 -1 3.1920396281748253E-07 4.9807258761802586E-08 -1 2.4929923370109464E-07 -1.1303335156753747E-07 -1 -2.921893837992684E-07 -3.2807784577926213E-07 -1 -6.530270724169895E-08 -3.229035883123288E-07 -1 -3.273922999369461E-08 -9.073704632100998E-08 -1 -2.3320521336245292E-07 -9.032286385490806E-08 -1 -2.0813875778458168E-07 -7.899564735680542E-08 -1 -2.1616985179662151E-07 -1.4673408088583528E-07 -1 3.0009402962605236E-07 1.7836510934898797E-08 -1 2.0507910392097983E-07 1.8342657170933307E-08 -1 2.0333712313913566E-07 1.1197425209275025E-07 -1 1.603446122544483E-07 9.311159487879195E-08 -1 2.0043029280714109E-07 2.6248269898078045E-15 -1 2.3283834593712527E-07 3.261266101617366E-07 -1 -2.427806577998126E-07 -4.518435403610965E-08 -1 -1.5387620067031094E-07 -2.392159785813419E-07 -1 4.7834383565259486E-08 7.00492535088415E-08 -1 7.684421099440897E-09 -7.213814257056583E-08 -1 1.1279897194071964E-07 -2.192288803826159E-07 -1 1.1518999798454388E-07 -0.994521975517273 -1.9195709466401922E-09 0.10452762246131897 -0.9510564804077148 -5.674860137361293E-09 0.30901703238487244 -0.9510564804077148 1.3509925622656738E-08 0.309017151594162 -0.8660255670547485 2.185949732336212E-08 0.4999997317790985 -0.8660256862640381 -2.2039952085606274E-08 0.4999995231628418 -0.7431451082229614 -2.9495225817299797E-08 0.669130265712738 -0.7431448698043823 3.229556000405864E-08 0.6691305637359619 -0.5877842903137207 3.904720813352469E-08 0.8090177178382874 -0.5877846479415894 -4.301693223851544E-08 0.8090174198150635 -0.40673714876174927 -4.857486501919084E-08 0.9135452508926392 -0.4067366421222687 4.4092235640391664E-08 0.9135454297065735 -0.20791171491146088 4.721025703702253E-08 0.978147566318512 -0.20791228115558624 -5.2009884399240036E-08 0.9781474471092224 -1.3414482469709804E-13 -5.317182427688749E-08 1 0.20791171491146088 -5.2009891504667394E-08 0.978147566318512 0.20791228115558624 4.721024993159517E-08 0.9781474471092224 0.40673673152923584 4.4092235640391664E-08 0.9135454297065735 0.40673622488975525 -4.857488633547291E-08 0.9135456085205078 0.5877853631973267 -4.301690381680601E-08 0.8090169429779053 0.5877857208251953 3.904715839553319E-08 0.8090166449546814 0.7431445717811584 3.229557776762704E-08 0.6691309213638306 0.7431443333625793 -2.9495261344436585E-08 0.6691311597824097 0.8660255670547485 -2.2039957414676792E-08 0.4999997317790985 0.8660256862640381 2.1859491994291602E-08 0.4999995231628418 0.9510564804077148 1.3509925622656738E-08 0.30901703238487244 0.9510564804077148 -5.674857028736824E-09 0.309017151594162 0.9945218563079834 -1.919586489762537E-09 0.10452874004840851 0.9945218563079834 3.7479244707760984E-10 0.10452872514724731 0.9945218563079834 -3.7478728454054533E-10 -0.1045287474989891 0.9945218563079834 7.724023087796184E-10 -0.1045287549495697 0.9510564804077148 2.2834381052661E-09 -0.3090170621871948 0.9510564804077148 5.5767876427914587E-11 -0.3090170621871948 0.8660256266593933 9.02324881479899E-11 -0.49999961256980896 0.7431445717811584 1.207536570735357E-10 -0.6691309213638306 0.7431445121765137 1.2747048749872647E-08 -0.6691309809684753 0.5877853035926819 1.5411897535955177E-08 -0.8090169429779053 0.5877853631973267 7.370798194017425E-09 -0.8090168833732605 0.4067367613315582 8.323136846399848E-09 -0.9135454297065735 0.4067367613315582 6.7505090406427826E-09 -0.9135454297065735 0.2079116851091385 7.2278765195221695E-09 -0.9781476259231567 0.20791184902191162 -2.1293567797897595E-08 -0.978147566318512 1.3414482469709804E-13 -2.17692814885595E-08 -1 -0.2079116851091385 -2.1293569574254434E-08 -0.9781476259231567 -0.20791184902191162 7.22787518725454E-09 -0.978147566318512 -0.40673717856407166 6.750505487929104E-09 -0.9135451912879944 -0.40673717856407166 8.323133293686169E-09 -0.9135451912879944 -0.5877842903137207 7.3708026349095235E-09 -0.8090177178382874 -0.5877842903137207 1.5411908194096213E-08 -0.8090176582336426 -0.7431451082229614 1.2747031874482673E-08 -0.6691303253173828 -0.7431450486183167 1.2074966027064704E-10 -0.6691303849220276 -0.8660256266593933 9.022793623358893E-11 -0.49999961256980896 -0.9510564804077148 5.5762880424303773E-11 -0.3090170621871948 -0.9510564804077148 2.283432998240187E-09 -0.3090170621871948 -0.994521975517273 7.723888195698692E-10 -0.10452763736248016 -0.994521975517273 -3.7478856129702365E-10 -0.10452764481306076 -0.994521975517273 3.747833154932323E-10 0.10452762991189957 -1.339260191461633E-13 -0.04080188646912575 0.999167263507843 2.6248553654115376E-15 -1 2.2053686876688516E-08 6.005129193908942E-07 -1 8.097066483969684E-08 9.486074503683994E-08 -1 1.9573237253212028E-08 2.6248587535433266E-15 -1 -3.8078469266622506E-09 -6.805529437770019E-07 -1 6.701709480694262E-07 -6.076667204979458E-07 -1 8.055031308629168E-09 -2.0403325251550086E-08 -1 8.055031308629168E-09 -4.862700819785459E-08 -1 4.628060601419293E-09 2.0816498746967227E-08 -1 2.1744329004036445E-08 2.1491787549621222E-07 -1 9.535722966802496E-08 -1.7321931977676286E-07 -1 -1.0835275077170081E-07 4.1649162341172996E-08 -1 -5.1002920997689216E-08 -2.288952885010076E-07 -1 1.1202697436374365E-07 1.8354408837240044E-07 -1 -1.044378379333466E-07 -2.604323299237876E-07 -1 6.394028417844311E-08 -1.9384798122246139E-07 -1 2.3898735435068374E-07 1.5746834947094612E-07 -1 -1.5756697280266962E-07 1.4261549097227544E-07 -1 -1.444084887225472E-07 1.5844872791603848E-07 -1 1.2058117704327742E-07 -1.4035227025033237E-07 -1 -1.441333949969703E-07 -1.332290082700638E-07 -1 -1.3609289339910902E-07 -1.574694437067592E-07 -1 -1.5756805282762798E-07 4.110218014830025E-07 -1 4.841256213694578E-07 -3.307906126792659E-08 -1 7.902745124965804E-09 4.5347782418048155E-08 -1 -1.6199899199875745E-09 1.8018649683426702E-08 -1 -1.6199899199875745E-09 </float_array>
          <technique_common>
            <accessor source="#mesh_1-normal-array" count="604" stride="3">
              <param name="X" type="float" />
              <param name="Y" type="float" />
              <param name="Z" type="float" />
            </accessor>
          </technique_common>
        </source>
        <vertices id="mesh_1-vertices">
          <input semantic="POSITION" source="#mesh_1-position" />
        </vertices>
        <triangles material="default" count="628">
          <input semantic="VERTEX" source="#mesh_1-vertices" offset="0" />
          <input semantic="NORMAL" source="#mesh_1-normal" offset="1" />
          <p>0 0 1 0 2 0 3 1 4 1 5 1 5 2 4 2 6 2 5 3 6 3 7 3 8 4 9 4 10 4 10 5 9 5 11 5 10 6 11 6 6 6 6 7 11 7 0 7 6 8 0 8 7 8 7 9 0 9 2 9 2 10 1 10 12 10 12 11 1 11 13 11 14 12 15 12 3 12 3 13 15 13 4 13 12 14 13 14 16 14 12 15 16 15 17 15 17 16 16 16 18 16 17 17 18 17 19 17 19 18 18 18 20 18 19 19 20 19 21 19 21 20 20 20 22 20 21 21 22 21 23 21 23 22 22 22 24 22 23 23 24 23 25 23 25 24 24 24 26 24 25 25 26 25 27 25 27 26 26 26 28 26 27 27 28 27 29 27 30 28 31 28 32 28 30 29 32 29 33 29 33 30 32 30 34 30 33 31 34 31 35 31 35 32 34 32 36 32 35 33 36 33 37 33 37 34 36 34 38 34 37 35 38 35 39 35 39 36 38 36 40 36 39 37 40 37 41 37 41 38 40 38 42 38 41 39 42 39 43 39 43 40 42 40 15 40 43 41 15 41 14 41 29 42 28 42 44 42 44 43 28 43 45 43 46 44 47 44 30 44 30 45 47 45 31 45 48 46 49 46 50 46 51 47 52 47 48 47 48 48 52 48 47 48 48 49 47 49 46 49 50 50 49 50 53 50 53 51 49 51 44 51 53 52 44 52 45 52 48 53 50 53 51 53 51 54 50 54 54 54 51 55 54 55 55 55 56 56 57 56 58 56 56 57 58 57 59 57 59 58 58 58 60 58 59 58 60 58 61 58 61 59 60 59 62 59 61 60 62 60 63 60 63 61 62 61 64 61 63 62 64 62 65 62 65 63 64 63 66 63 65 64 66 64 67 64 67 65 66 65 68 65 67 66 68 66 69 66 69 67 68 67 70 67 69 67 70 67 71 67 71 68 70 68 72 68 71 68 72 68 73 68 73 69 72 69 74 69 73 70 74 70 75 70 75 71 74 71 76 71 75 72 76 72 77 72 77 73 76 73 78 73 77 73 78 73 79 73 79 74 78 74 80 74 79 75 80 75 81 75 81 76 80 76 82 76 81 77 82 77 83 77 8 78 83 78 9 78 9 79 83 79 82 79 56 80 55 80 57 80 57 81 55 81 54 81 8 82 10 82 55 82 55 83 10 83 51 83 51 84 10 84 6 84 51 85 6 85 52 85 52 86 6 86 4 86 52 87 4 87 47 87 47 88 4 88 31 88 31 89 4 89 15 89 31 90 15 90 32 90 61 91 63 91 81 91 81 92 63 92 65 92 81 93 65 93 67 93 42 94 40 94 15 94 15 95 40 95 38 95 8 96 55 96 83 96 83 97 55 97 56 97 83 98 56 98 81 98 81 99 56 99 59 99 81 100 59 100 61 100 67 101 69 101 81 101 81 102 69 102 71 102 81 103 71 103 73 103 38 104 36 104 15 104 15 105 36 105 34 105 15 106 34 106 32 106 75 107 77 107 73 107 73 108 77 108 79 108 73 109 79 109 81 109 1 110 0 110 50 110 18 111 16 111 13 111 50 112 0 112 54 112 0 113 11 113 54 113 54 114 11 114 9 114 54 115 9 115 57 115 57 116 9 116 82 116 82 117 80 117 57 117 57 118 80 118 78 118 57 119 78 119 76 119 70 120 68 120 57 120 57 121 68 121 66 121 57 122 66 122 64 122 64 123 62 123 57 123 57 124 62 124 60 124 57 125 60 125 58 125 22 126 20 126 24 126 24 127 20 127 28 127 24 128 28 128 26 128 20 129 18 129 28 129 28 130 18 130 13 130 28 131 13 131 45 131 45 132 13 132 1 132 45 133 1 133 53 133 53 134 1 134 50 134 76 135 74 135 57 135 57 136 74 136 72 136 57 137 72 137 70 137 29 138 44 138 2 138 2 139 44 139 49 139 2 140 49 140 7 140 19 141 21 141 23 141 2 142 12 142 29 142 29 143 12 143 17 143 29 144 17 144 27 144 27 145 17 145 19 145 27 146 19 146 25 146 25 147 19 147 23 147 37 148 39 148 35 148 35 149 39 149 41 149 35 150 41 150 33 150 33 151 41 151 43 151 33 152 43 152 30 152 30 153 43 153 14 153 30 154 14 154 46 154 46 155 14 155 3 155 46 156 3 156 48 156 48 157 3 157 5 157 48 158 5 158 49 158 49 158 5 158 7 158 84 159 85 159 86 159 86 160 85 160 87 160 84 161 88 161 85 161 85 162 88 162 89 162 85 163 89 163 90 163 90 164 89 164 91 164 90 165 91 165 92 165 92 166 91 166 93 166 92 167 93 167 94 167 94 168 93 168 95 168 94 169 95 169 96 169 96 170 95 170 97 170 96 171 97 171 98 171 98 172 97 172 99 172 98 173 99 173 100 173 100 174 99 174 101 174 100 175 101 175 102 175 102 176 101 176 103 176 102 177 103 177 104 177 104 178 103 178 105 178 104 179 105 179 106 179 106 180 105 180 107 180 106 181 107 181 108 181 108 182 107 182 109 182 108 183 109 183 110 183 110 184 109 184 111 184 110 185 111 185 112 185 112 186 111 186 113 186 112 186 113 186 114 186 114 187 113 187 115 187 114 188 115 188 116 188 116 189 115 189 117 189 116 190 117 190 118 190 118 191 117 191 119 191 118 192 119 192 120 192 120 193 119 193 121 193 120 194 121 194 122 194 122 195 121 195 123 195 122 196 123 196 124 196 124 197 123 197 125 197 124 198 125 198 126 198 126 199 125 199 127 199 126 200 127 200 128 200 128 201 127 201 129 201 128 202 129 202 130 202 130 203 129 203 131 203 130 204 131 204 132 204 132 205 131 205 133 205 132 206 133 206 134 206 134 207 133 207 135 207 134 208 135 208 136 208 136 209 135 209 137 209 136 210 137 210 87 210 87 211 137 211 138 211 87 212 138 212 86 212 120 213 139 213 118 213 118 214 139 214 140 214 118 215 140 215 116 215 116 216 140 216 141 216 116 217 141 217 114 217 114 218 141 218 142 218 114 219 142 219 112 219 112 220 142 220 143 220 112 221 143 221 110 221 110 222 143 222 144 222 110 223 144 223 108 223 144 224 145 224 108 224 108 225 145 225 146 225 108 226 146 226 106 226 106 227 146 227 147 227 106 228 147 228 104 228 104 229 147 229 148 229 104 230 148 230 102 230 102 231 148 231 149 231 102 232 149 232 100 232 100 233 149 233 150 233 100 234 150 234 98 234 98 235 150 235 151 235 98 236 151 236 96 236 96 237 151 237 152 237 96 238 152 238 94 238 134 239 153 239 132 239 132 240 153 240 154 240 132 241 154 241 130 241 130 242 154 242 155 242 130 243 155 243 128 243 128 244 155 244 156 244 128 245 156 245 126 245 126 246 156 246 157 246 126 247 157 247 124 247 124 248 157 248 158 248 124 249 158 249 122 249 122 250 158 250 159 250 122 251 159 251 120 251 120 252 159 252 160 252 120 253 160 253 139 253 152 254 161 254 94 254 94 255 161 255 162 255 94 256 162 256 92 256 92 257 162 257 163 257 92 258 163 258 90 258 90 259 163 259 164 259 90 260 164 260 85 260 85 261 164 261 165 261 85 219 165 219 87 219 87 220 165 220 166 220 87 262 166 262 136 262 136 263 166 263 167 263 136 264 167 264 134 264 134 265 167 265 168 265 134 266 168 266 153 266 169 267 170 267 171 267 169 268 172 268 173 268 174 269 172 269 169 269 171 270 174 270 169 270 169 271 175 271 176 271 177 272 175 272 169 272 173 273 177 273 169 273 169 274 178 274 179 274 180 275 178 275 169 275 176 276 180 276 169 276 169 277 181 277 182 277 183 278 181 278 169 278 179 279 183 279 169 279 169 280 184 280 185 280 186 281 184 281 169 281 182 282 186 282 169 282 169 283 187 283 188 283 189 284 187 284 169 284 185 285 189 285 169 285 169 286 190 286 191 286 192 287 190 287 169 287 188 288 192 288 169 288 169 289 193 289 194 289 195 290 193 290 169 290 191 291 195 291 169 291 194 292 170 292 169 292 170 293 196 293 171 293 171 294 196 294 197 294 171 295 197 295 174 295 174 296 197 296 198 296 174 297 198 297 172 297 172 298 198 298 199 298 172 299 199 299 173 299 173 300 199 300 200 300 173 300 200 300 177 300 177 301 200 301 201 301 177 302 201 302 175 302 175 303 201 303 202 303 175 303 202 303 176 303 176 304 202 304 203 304 176 305 203 305 180 305 180 306 203 306 204 306 180 306 204 306 178 306 178 307 204 307 205 307 178 308 205 308 179 308 179 309 205 309 206 309 179 310 206 310 183 310 183 311 206 311 207 311 183 312 207 312 181 312 181 313 207 313 208 313 181 314 208 314 182 314 182 315 208 315 209 315 182 316 209 316 186 316 186 317 209 317 210 317 186 318 210 318 184 318 184 319 210 319 211 319 184 319 211 319 185 319 185 320 211 320 212 320 185 321 212 321 189 321 189 322 212 322 213 322 189 323 213 323 187 323 187 324 213 324 214 324 187 325 214 325 188 325 188 326 214 326 215 326 188 326 215 326 192 326 192 327 215 327 216 327 192 328 216 328 190 328 190 329 216 329 217 329 190 330 217 330 191 330 191 331 217 331 218 331 191 332 218 332 195 332 195 333 218 333 219 333 195 333 219 333 193 333 193 334 219 334 220 334 193 335 220 335 194 335 194 336 220 336 221 336 194 337 221 337 170 337 170 338 221 338 196 338 211 339 222 339 212 339 212 340 222 340 223 340 212 341 223 341 213 341 213 342 223 342 224 342 213 343 224 343 214 343 214 344 224 344 225 344 214 345 225 345 215 345 219 346 226 346 220 346 220 347 226 347 227 347 220 348 227 348 221 348 221 349 227 349 228 349 221 350 228 350 196 350 225 351 229 351 215 351 215 352 229 352 230 352 215 353 230 353 216 353 216 354 230 354 231 354 216 355 231 355 217 355 217 356 231 356 232 356 217 357 232 357 218 357 218 358 232 358 233 358 218 359 233 359 219 359 219 360 233 360 234 360 219 361 234 361 226 361 200 362 235 362 201 362 201 363 235 363 236 363 201 364 236 364 202 364 202 365 236 365 237 365 202 366 237 366 203 366 203 367 237 367 238 367 203 368 238 368 204 368 208 369 239 369 209 369 209 370 239 370 240 370 209 371 240 371 210 371 210 372 240 372 241 372 210 373 241 373 211 373 211 374 241 374 242 374 211 375 242 375 222 375 228 376 243 376 196 376 196 377 243 377 244 377 196 378 244 378 197 378 197 379 244 379 245 379 197 380 245 380 198 380 198 381 245 381 246 381 198 382 246 382 199 382 199 383 246 383 247 383 199 384 247 384 200 384 200 385 247 385 248 385 200 386 248 386 235 386 238 387 249 387 204 387 204 388 249 388 250 388 204 389 250 389 205 389 205 390 250 390 251 390 205 391 251 391 206 391 206 392 251 392 252 392 206 393 252 393 207 393 207 394 252 394 253 394 207 395 253 395 208 395 208 396 253 396 254 396 208 397 254 397 239 397 228 398 255 398 243 398 243 399 255 399 256 399 243 400 256 400 244 400 244 401 256 401 257 401 244 402 257 402 245 402 245 403 257 403 258 403 245 403 258 403 246 403 246 404 258 404 259 404 246 405 259 405 247 405 247 406 259 406 260 406 247 407 260 407 248 407 248 408 260 408 261 408 248 409 261 409 235 409 235 410 261 410 262 410 235 411 262 411 236 411 236 412 262 412 263 412 236 413 263 413 237 413 237 414 263 414 264 414 237 415 264 415 238 415 238 416 264 416 265 416 238 417 265 417 249 417 249 418 265 418 266 418 249 418 266 418 250 418 250 419 266 419 267 419 250 419 267 419 251 419 251 420 267 420 268 420 251 421 268 421 252 421 252 422 268 422 269 422 252 423 269 423 253 423 253 424 269 424 270 424 253 425 270 425 254 425 254 426 270 426 271 426 254 426 271 426 239 426 239 427 271 427 272 427 239 428 272 428 240 428 240 429 272 429 273 429 240 430 273 430 241 430 241 431 273 431 274 431 241 432 274 432 242 432 242 433 274 433 275 433 242 434 275 434 222 434 222 435 275 435 276 435 222 436 276 436 223 436 223 437 276 437 277 437 223 438 277 438 224 438 224 439 277 439 278 439 224 439 278 439 225 439 225 440 278 440 279 440 225 440 279 440 229 440 229 441 279 441 280 441 229 442 280 442 230 442 230 443 280 443 281 443 230 444 281 444 231 444 231 445 281 445 282 445 231 446 282 446 232 446 232 447 282 447 283 447 232 448 283 448 233 448 233 449 283 449 284 449 233 450 284 450 234 450 234 451 284 451 285 451 234 452 285 452 226 452 226 453 285 453 286 453 226 454 286 454 227 454 227 455 286 455 287 455 227 456 287 456 228 456 228 457 287 457 255 457 288 458 259 458 289 458 289 459 259 459 258 459 289 460 258 460 290 460 290 461 258 461 257 461 290 462 257 462 291 462 291 463 257 463 256 463 291 464 256 464 292 464 292 465 256 465 255 465 292 466 255 466 293 466 293 467 255 467 287 467 293 468 287 468 294 468 294 469 287 469 286 469 294 470 286 470 295 470 295 471 286 471 285 471 295 472 285 472 296 472 296 473 285 473 284 473 296 474 284 474 297 474 297 475 284 475 283 475 297 476 283 476 298 476 283 477 282 477 298 477 298 478 282 478 281 478 298 479 281 479 299 479 299 480 281 480 280 480 299 481 280 481 300 481 300 482 280 482 279 482 300 483 279 483 301 483 301 484 279 484 278 484 301 485 278 485 302 485 302 486 278 486 277 486 302 487 277 487 303 487 303 488 277 488 276 488 303 489 276 489 304 489 304 490 276 490 275 490 304 491 275 491 305 491 305 492 275 492 274 492 305 493 274 493 306 493 306 494 274 494 273 494 306 495 273 495 307 495 307 496 273 496 272 496 307 497 272 497 308 497 272 498 271 498 308 498 308 499 271 499 270 499 308 500 270 500 309 500 309 501 270 501 269 501 309 502 269 502 310 502 310 503 269 503 268 503 310 504 268 504 311 504 311 505 268 505 267 505 311 506 267 506 312 506 312 507 267 507 266 507 312 508 266 508 313 508 313 509 266 509 265 509 313 510 265 510 314 510 314 511 265 511 264 511 314 512 264 512 315 512 315 513 264 513 263 513 315 514 263 514 316 514 316 515 263 515 262 515 316 516 262 516 317 516 317 517 262 517 261 517 317 518 261 518 288 518 288 519 261 519 260 519 288 520 260 520 259 520 293 521 149 521 292 521 292 522 149 522 148 522 292 523 148 523 291 523 291 524 148 524 147 524 291 525 147 525 290 525 290 526 147 526 146 526 290 527 146 527 289 527 289 528 146 528 145 528 289 529 145 529 288 529 288 530 145 530 144 530 288 531 144 531 317 531 317 532 144 532 143 532 317 533 143 533 316 533 316 534 143 534 142 534 316 534 142 534 315 534 315 535 142 535 141 535 315 536 141 536 314 536 314 537 141 537 140 537 314 538 140 538 313 538 313 539 140 539 139 539 313 540 139 540 312 540 312 541 139 541 160 541 312 542 160 542 311 542 311 543 160 543 159 543 311 544 159 544 310 544 310 545 159 545 158 545 310 546 158 546 309 546 309 547 158 547 157 547 309 548 157 548 308 548 308 549 157 549 156 549 308 550 156 550 307 550 307 551 156 551 155 551 307 552 155 552 306 552 306 553 155 553 154 553 306 553 154 553 305 553 305 554 154 554 153 554 305 555 153 555 304 555 304 556 153 556 168 556 304 557 168 557 303 557 303 558 168 558 167 558 303 559 167 559 302 559 302 560 167 560 166 560 302 561 166 561 301 561 301 562 166 562 165 562 301 562 165 562 300 562 300 563 165 563 164 563 300 564 164 564 299 564 299 565 164 565 163 565 299 566 163 566 298 566 298 567 163 567 162 567 298 568 162 568 297 568 297 569 162 569 161 569 297 570 161 570 296 570 296 571 161 571 152 571 296 571 152 571 295 571 295 572 152 572 151 572 295 573 151 573 294 573 294 574 151 574 150 574 294 575 150 575 293 575 293 576 150 576 149 576 84 577 86 577 138 577 84 578 138 578 111 578 138 579 137 579 111 579 111 580 137 580 135 580 111 581 135 581 113 581 133 582 131 582 129 582 84 583 111 583 88 583 88 584 111 584 109 584 88 585 109 585 107 585 107 586 105 586 88 586 88 587 105 587 103 587 88 588 103 588 101 588 93 589 91 589 89 589 125 590 123 590 135 590 135 591 123 591 121 591 135 592 121 592 119 592 133 593 129 593 135 593 135 594 129 594 127 594 135 595 127 595 125 595 101 596 99 596 88 596 88 597 99 597 97 597 88 598 97 598 89 598 89 599 97 599 95 599 89 600 95 600 93 600 119 601 117 601 135 601 135 602 117 602 115 602 135 603 115 603 113 603</p>
        </triangles>
      </mesh>
    </geometry>
  </library_geometries>
  <library_images />
  <library_visual_scenes>
    <visual_scene id="Scene">
      <node id="node_1" sid="node_1" type="NODE">
        <matrix>1 0 0 0 0 1 0 0 0 0 1 0 0 0 0 1</matrix>
        <instance_geometry url="#mesh_1" />
      </node>
    </visual_scene>
  </library_visual_scenes>
  <library_animations />
  <scene>
    <instance_visual_scene url="#Scene" />
  </scene>
</COLLADA>