<?xml version="1.0" encoding="utf-8"?>
<COLLADA version="1.5.0" xmlns="http://www.collada.org/2008/03/COLLADASchema">
  <asset>
    <contributor />
    <unit meter="1" />
    <up_axis>Z_UP</up_axis>
  </asset>
  <library_lights />
  <library_materials />
  <library_effects />
  <library_cameras />
  <library_geometries>
    <geometry id="mesh_1">
      <mesh>
        <source id="mesh_1-position" name="position">
          <float_array id="mesh_1-position-array" count="954">-0.004269175231456757 -0.020049994811415672 -0.15325449407100677 -0.001994751626625657 -0.02005000412464142 -0.16026833653450012 -0.001994751626625657 -0.008919497951865196 -0.16026833653450012 -0.001994751626625657 0.008919501677155495 -0.16026833653450012 -0.001994751626625657 0.014950001612305641 -0.16026833653450012 -0.00337421172298491 0.0089500043541193 -0.1567511260509491 -0.004269175231456757 0.014949994161725044 -0.15325449407100677 -0.00337421172298491 -0.008949995040893555 -0.1567511260509491 -0.0047641173005104065 -0.02004999853670597 -0.1458977460861206 -0.0047641173005104065 0.01495000347495079 -0.1458977311849594 -0.0034496712032705545 -0.02005000412464142 -0.13864246010780334 -0.0034496712032705545 0.014950001612305641 -0.13864246010780334 0.013591744005680084 0.014950001612305641 -0.19365465641021729 0.013591744005680084 0.0086214579641819 -0.19365465641021729 0.013591744005680084 -0.02004999853670597 -0.19365467131137848 0.013591744005680084 -0.008621464483439922 -0.19365465641021729 -0.011832199990749359 0.008594375103712082 -0.20921942591667175 -0.011832199990749359 0.014950002543628216 -0.20921942591667175 -0.0070890262722969055 0.01495000347495079 -0.21321909129619598 -0.0070890262722969055 0.00854883249849081 -0.21321909129619598 -0.0011330024572089314 0.014950000680983067 -0.2149571031332016 -0.0011330024572089314 0.00851571373641491 -0.2149571031332016 0.005016855895519257 0.014949996955692768 -0.21413610875606537 0.005016855895519257 0.00850068312138319 -0.21413612365722656 0.010308399796485901 0.014950002543628216 -0.2108965963125229 0.010308399796485901 0.008506327867507935 -0.2108965963125229 0.013836279511451721 0.014949997887015343 -0.20579278469085693 0.013836279511451721 0.008531657978892326 -0.20579276978969574 0.014996916055679321 0.014949998818337917 -0.19969788193702698 0.014996916055679321 0.008572357706725597 -0.19969788193702698 0.014996916055679321 -0.020049992948770523 -0.19969786703586578 0.014996916055679321 -0.00857236236333847 -0.19969786703586578 0.013836279511451721 -0.020049994811415672 -0.20579276978969574 0.013836279511451721 -0.00853165052831173 -0.20579278469085693 0.010308399796485901 -0.02005000412464142 -0.2108965963125229 0.010308399796485901 -0.008506320416927338 -0.2108965963125229 0.005016855895519257 -0.02005000226199627 -0.21413612365722656 0.005016855895519257 -0.008500680327415466 -0.21413612365722656 -0.0011330024572089314 -0.02005000412464142 -0.2149571031332016 -0.0011330024572089314 -0.008515708148479462 -0.2149571180343628 -0.0070890262722969055 -0.02005000226199627 -0.21321909129619598 -0.0070890262722969055 -0.008548835292458534 -0.21321909129619598 -0.011832199990749359 -0.02005000226199627 -0.20921942591667175 -0.011832199990749359 -0.008594372309744358 -0.20921942591667175 -0.03229270130395889 0.014949998818337917 -0.18296046555042267 -0.03229270130395889 0.00885685347020626 -0.18296046555042267 -0.03229270130395889 -0.020049992948770523 -0.18296046555042267 -0.03229270130395889 -0.008856858126819134 -0.18296046555042267 -0.03830628842115402 0.00894999410957098 -0.17305925488471985 -0.03830628842115402 -0.008950005285441875 -0.17305925488471985 -0.04186151176691055 -0.02005000039935112 -0.16213159263134003 -0.04186151176691055 0.014950001612305641 -0.16213159263134003 -0.03828679770231247 0.014949998818337917 -0.1731017529964447 -0.03828679770231247 -0.02005000412464142 -0.1731017678976059 -0.04282649606466293 -0.02005000039935112 -0.15063410997390747 -0.04282649606466293 0.01495000533759594 -0.15063410997390747 0.03627541661262512 -0.02005000039935112 -0.01131787896156311 0.03627541661262512 0.014949996955692768 -0.011317878030240536 0.037969671189785004 0.014950000680983067 -0.0015179745387285948 0.037969671189785004 -0.02004999667406082 -0.0015179734909906983 0.03706314414739609 0.014950000680983067 0.008385904133319855 0.03706314414739609 -0.02005000226199627 0.008385902270674706 0.03361792862415314 0.014950001612305641 0.01771538145840168 0.03361792862415314 -0.02005000226199627 0.01771537959575653 0.027870014309883118 0.014949999749660492 0.025831418111920357 0.027870014309883118 -0.02004999667406082 0.025831416249275208 0.020213112235069275 0.014949999749660492 0.03217810019850731 0.020213112235069275 -0.02004999853670597 0.03217810392379761 0.011171683669090271 0.014949998818337917 0.036320704966783524 0.011171683669090271 -0.02005000039935112 0.03632070869207382 0.0013650282053276896 0.014950000680983067 0.03797547146677971 0.0013650282053276896 -0.02004999853670597 0.037975478917360306 -0.008535109460353851 0.014950000680983067 0.037029068917036057 -0.008535109460353851 -0.02005000226199627 0.03702906519174576 -0.017850644886493683 0.014949998818337917 0.03354630619287491 -0.017850644886493683 -0.02004999667406082 0.03354630619287491 -0.025943465530872345 0.014950000680983067 0.027765750885009766 -0.025943465530872345 -0.02004999853670597 0.027765754610300064 -0.032259248197078705 0.014949998818337917 0.020083339884877205 -0.032259248197078705 -0.02004999853670597 0.020083341747522354 -0.036365412175655365 0.014950000680983067 0.011025302112102509 -0.036365412175655365 -0.02004999667406082 0.011025303043425083 -0.03798066824674606 0.014950001612305641 0.0012120680185034871 -0.03798066824674606 -0.02005000226199627 0.0012120661558583379 0.0011624618200585246 0.08741845935583115 -0.015519136562943459 0.0026999188121408224 0.08115000277757645 -0.022235818207263947 7.323806894277141E-09 0.08745688199996948 -0.015520705841481686 -0.0026999192778021097 0.08115000277757645 -0.022235818207263947 0.001875869813375175 0.08741845935583115 -0.015449143946170807 0.005518577992916107 0.08741845190525055 -0.014551295898854733 0.007942840456962585 0.08115000277757645 -0.020943552255630493 0.008840568363666534 0.08741845935583115 -0.012807779014110565 0.012724161148071289 0.08115000277757645 -0.018434125930070877 0.011648781597614288 0.08741845935583115 -0.010319921188056469 0.016765989363193512 0.08115000277757645 -0.014853372238576412 0.013780012726783752 0.08741845190525055 -0.007232306990772486 0.01983344554901123 0.08115000277757645 -0.010409396141767502 0.015110388398170471 0.08741845935583115 -0.00372437690384686 0.02174825221300125 0.08115000277757645 -0.005360463168472052 0.015562616288661957 0.08741845935583115 2.136004983999129E-10 0.022399134933948517 0.08115000277757645 9.870988748605924E-11 0.015110388398170471 0.08741845935583115 0.0037243773695081472 0.02174825221300125 0.08115000277757645 0.005360463168472052 0.013780012726783752 0.08741845935583115 0.007232306525111198 0.01983344554901123 0.08115000277757645 0.010409396141767502 0.011648781597614288 0.08741845190525055 0.010319921188056469 0.016765989363193512 0.08115000277757645 0.014853372238576412 0.008840568363666534 0.08741845190525055 0.01280777994543314 0.012724161148071289 0.08115000277757645 0.018434124067425728 0.005518577992916107 0.08741845190525055 0.014551295898854733 0.007942840456962585 0.08115000277757645 0.020943554118275642 0.001875869813375175 0.08741845190525055 0.015449143946170807 0.0026999188121408224 0.08115000277757645 0.022235818207263947 -0.0018758700462058187 0.08741845190525055 0.015449143946170807 -0.0026999192778021097 0.08115000277757645 0.022235818207263947 -0.005518577992916107 0.08741845190525055 0.014551295898854733 -0.007942847907543182 0.08115000277757645 0.020943554118275642 -0.008840568363666534 0.08741845190525055 0.01280777994543314 -0.012724153697490692 0.08115000277757645 0.018434124067425728 -0.011648781597614288 0.08741845190525055 0.010319921188056469 -0.016765989363193512 0.08115000277757645 0.014853372238576412 -0.013780005276203156 0.08741845935583115 0.007232306525111198 -0.019833452999591827 0.08115000277757645 0.010409396141767502 -0.015110395848751068 0.08741845935583115 0.0037243773695081472 -0.02174825221300125 0.08115000277757645 0.005360463168472052 -0.015562616288661957 0.08741845935583115 2.1368712355140929E-10 -0.022399134933948517 0.08115000277757645 9.883456553172465E-11 -0.015110395848751068 0.08741845935583115 -0.00372437690384686 -0.02174825221300125 0.08115000277757645 -0.005360463168472052 -0.013780005276203156 0.08741845190525055 -0.007232306990772486 -0.019833452999591827 0.08115000277757645 -0.010409396141767502 -0.011648781597614288 0.08741845935583115 -0.010319921188056469 -0.016765989363193512 0.08115000277757645 -0.014853372238576412 -0.008840568363666534 0.08741845935583115 -0.012807779014110565 -0.012724153697490692 0.08115000277757645 -0.018434125930070877 -0.005518577992916107 0.08741845190525055 -0.014551295898854733 -0.007942847907543182 0.08115000277757645 -0.020943552255630493 -0.0018758700462058187 0.08741845935583115 -0.015449143946170807 -0.0011624620528891683 0.08741845935583115 -0.015519136562943459 0.021278351545333862 0.08115000277757645 -0.023632006719708443 0.01590000092983246 0.08115000277757645 -0.027539607137441635 0.009826742112636566 0.08115000277757645 -0.03024359792470932 0.00332400924526155 0.08115000277757645 -0.03162579610943794 -0.0033240097109228373 0.08115000277757645 -0.03162579610943794 -0.009826742112636566 0.08115000277757645 -0.03024359792470932 0.021278351545333862 0.08115000277757645 0.023632004857063293 0.025726743042469025 0.08115000277757645 0.018691569566726685 0.02905074506998062 0.08115000277757645 0.012934225611388683 0.03110509365797043 0.08115000277757645 0.006611592136323452 0.03180000185966492 0.08115000277757645 9.868372091714761E-11 0.03110509365797043 0.08115000277757645 -0.006611591670662165 0.02905074506998062 0.08115000277757645 -0.012934224680066109 0.025726743042469025 0.08115000277757645 -0.018691571429371834 -0.01589999347925186 0.08115000277757645 -0.027539607137441635 -0.02127835899591446 0.08115000277757645 -0.023632006719708443 -0.025726743042469025 0.08115000277757645 -0.018691571429371834 -0.02905074506998062 0.08115000277757645 -0.012934224680066109 -0.03110509365797043 0.08115000277757645 -0.006611591670662165 -0.03179999440908432 0.08115000277757645 9.886072516174238E-11 -0.03110509365797043 0.08115000277757645 0.006611592136323452 -0.02905074506998062 0.08115000277757645 0.012934225611388683 -0.025726743042469025 0.08115000277757645 0.018691569566726685 -0.02127835899591446 0.08115000277757645 0.023632004857063293 -0.01589999347925186 0.08115000277757645 0.027539607137441635 -0.009826742112636566 0.08115000277757645 0.03024359606206417 -0.0033240097109228373 0.08115000277757645 0.03162579610943794 0.00332400924526155 0.08115000277757645 0.03162579610943794 0.009826742112636566 0.08115000277757645 0.03024359606206417 0.01590000092983246 0.08115000277757645 0.027539607137441635 7.323849970930496E-09 0.008747837506234646 5.408243297644333E-11 -0.023035429418087006 0.008718458004295826 1.9176214782756773E-10 -0.02236606925725937 0.008718453347682953 -0.005512740928679705 -0.017242275178432465 0.008718454279005527 -0.015275316312909126 -0.013085611164569855 0.008718458004295826 -0.01895778626203537 -0.020396865904331207 0.008718457072973251 -0.010705098509788513 -0.0027766155544668436 0.008718457072973251 -0.022867476567626 0.0027766150888055563 0.008718457072973251 -0.022867476567626 -0.008168481290340424 0.008718458004295826 -0.021538501605391502 0.013085618615150452 0.008718458004295826 -0.01895778626203537 0.017242267727851868 0.008718454279005527 -0.015275316312909126 0.008168473839759827 0.008718458004295826 -0.021538501605391502 0.022366061806678772 0.008718453347682953 -0.005512740928679705 0.023035429418087006 0.008718458004295826 1.9163391706822352E-10 0.02039685845375061 0.008718457072973251 -0.010705098509788513 0.02039685845375061 0.0087184589356184 0.010705098509788513 0.017242267727851868 0.008718453347682953 0.015275317244231701 0.022366061806678772 0.008718455210328102 0.005512740463018417 0.008168473839759827 0.0087184589356184 0.021538501605391502 0.0027766150888055563 0.008718458004295826 0.02286747843027115 0.013085618615150452 0.008718458004295826 0.01895778812468052 -0.008168481290340424 0.0087184589356184 0.021538501605391502 -0.013085611164569855 0.008718458004295826 0.01895778812468052 -0.0027766155544668436 0.008718458004295826 0.02286747843027115 -0.020396865904331207 0.0087184589356184 0.010705098509788513 -0.02236606925725937 0.008718455210328102 0.005512740463018417 -0.017242275178432465 0.008718453347682953 0.015275317244231701 -0.02236606925725937 0.014949998818337917 -0.0055127390660345554 -0.020396865904331207 0.01495000347495079 -0.010705098509788513 -0.017242275178432465 0.014950000680983067 -0.015275316312909126 -0.013085611164569855 0.014949996955692768 -0.01895778998732567 -0.008168481290340424 0.01495000347495079 -0.021538499742746353 -0.0027766155544668436 0.01495000347495079 -0.022867476567626 0.0027766150888055563 0.01495000347495079 -0.022867476567626 0.008168473839759827 0.01495000347495079 -0.021538499742746353 0.013085618615150452 0.014949996955692768 -0.01895778998732567 0.017242267727851868 0.014950000680983067 -0.015275316312909126 0.02039685845375061 0.01495000347495079 -0.010705098509788513 0.022366061806678772 0.014949998818337917 -0.0055127390660345554 0.023035429418087006 0.014949996024370193 -7.63262453240543E-10 0.022366061806678772 0.014950002543628216 0.0055127390660345554 0.02039685845375061 0.014949996955692768 0.010705097578465939 0.017242267727851868 0.014949999749660492 0.015275315381586552 0.013085618615150452 0.014949996024370193 0.01895778812468052 0.008168473839759827 0.014949996955692768 0.021538501605391502 0.0027766150888055563 0.014949997887015343 0.02286747470498085 -0.0027766155544668436 0.014949997887015343 0.02286747470498085 -0.008168481290340424 0.014949996955692768 0.021538501605391502 -0.013085611164569855 0.014949996024370193 0.01895778812468052 -0.017242275178432465 0.014949999749660492 0.015275315381586552 -0.020396865904331207 0.014949996955692768 0.010705097578465939 -0.02236606925725937 0.014950002543628216 0.0055127390660345554 -0.023035429418087006 0.014949996024370193 -7.631342224811988E-10 0.02488470822572708 0.014949998818337917 0.028718484565615654 0.01900000125169754 0.014949996955692768 0.03290896490216255 0.012428581714630127 0.014950001612305641 0.03591003268957138 0.005407966673374176 0.014949996955692768 0.037613216787576675 0.02488470822572708 0.014950000680983067 -0.028718482702970505 0.029870018362998962 0.014950001612305641 -0.023490041494369507 0.03377574682235718 0.014949996955692768 -0.017412608489394188 -0.008958838880062103 0.014949998818337917 -0.03692883998155594 -0.0018081144662573934 0.014950000680983067 -0.03795696049928665 0.005407966673374176 0.014950002543628216 -0.03761321306228638 0.012428581714630127 0.014949998818337917 -0.03591003268957138 0.01900000125169754 0.01495000347495079 -0.03290896490216255 -0.03527798503637314 0.014949996955692768 -0.01412317343056202 -0.031967632472515106 0.014949999749660492 -0.020544350147247314 -0.027501888573169708 0.014949999749660492 -0.02622300200164318 -0.022042162716388702 0.014949999749660492 -0.03095388598740101 -0.01578577607870102 0.014950002543628216 -0.034566015005111694 -0.0018081144662573934 0.014950000680983067 0.03795695677399635 -0.008958838880062103 0.014950002543628216 0.03692883625626564 -0.01578577607870102 0.014949996955692768 0.034566015005111694 -0.022042162716388702 0.014950001612305641 0.03095388598740101 -0.027501888573169708 0.014950000680983067 0.02622300013899803 0.03646073490381241 0.014950002543628216 -0.010705836117267609 0.037827931344509125 0.014949999749660492 -0.0036121292505413294 0.037827931344509125 0.014950000680983067 0.003612128784880042 0.03646073490381241 0.014949997887015343 0.010705836117267609 0.03377574682235718 0.014950002543628216 0.017412610352039337 0.029870018362998962 0.014949998818337917 0.023490041494369507 -0.031967632472515106 0.014950000680983067 0.020544350147247314 -0.03527798503637314 0.01495000347495079 0.01412317343056202 -0.03731328994035721 0.014949998818337917 0.007191546261310577 -0.037999995052814484 0.014949996024370193 -7.630925891177753E-10 -0.03731328994035721 0.014950001612305641 -0.007191546726971865 -0.03731328994035721 0.04194999858736992 -0.007191547192633152 -0.03527798503637314 0.04194999858736992 -0.014123174361884594 -0.031967632472515106 0.04195000231266022 -0.020544350147247314 -0.027501888573169708 0.04194999858736992 -0.02622300386428833 -0.022042162716388702 0.04194999858736992 -0.030953887850046158 -0.01578577607870102 0.04194999858736992 -0.034566015005111694 -0.008958838880062103 0.04194999858736992 -0.03692883998155594 -0.0018081144662573934 0.04194999858736992 -0.03795696049928665 0.005407966673374176 0.04194999858736992 -0.03761321306228638 0.012428581714630127 0.04194999858736992 -0.03591003268957138 0.01900000125169754 0.04195000231266022 -0.03290896490216255 0.02488470822572708 0.04194999858736992 -0.028718484565615654 0.029870018362998962 0.04194999858736992 -0.023490041494369507 0.03377574682235718 0.04194999858736992 -0.017412608489394188 0.03646073490381241 0.04194999858736992 -0.010705837048590183 0.037827931344509125 0.04195000231266022 -0.0036121299490332603 0.037827931344509125 0.04195000231266022 0.0036121299490332603 0.03646073490381241 0.04194999858736992 0.010705835185945034 0.03377574682235718 0.04195000231266022 0.017412608489394188 0.029870018362998962 0.04194999858736992 0.023490041494369507 0.02488470822572708 0.04195000231266022 0.028718482702970505 0.01900000125169754 0.04194999858736992 0.03290896490216255 0.012428581714630127 0.04194999858736992 0.03591003268957138 0.005407966673374176 0.04194999858736992 0.037613216787576675 -0.0018081144662573934 0.04195000231266022 0.03795696049928665 -0.008958838880062103 0.04194999858736992 0.03692883998155594 -0.01578577607870102 0.04194999858736992 0.034566015005111694 -0.022042162716388702 0.04194999858736992 0.030953887850046158 -0.027501888573169708 0.04195000231266022 0.02622300386428833 -0.031967632472515106 0.04195000231266022 0.020544352009892464 -0.03527798503637314 0.04194999858736992 0.014123174361884594 -0.03731328994035721 0.04194999858736992 0.007191547192633152 -0.037999995052814484 0.04195000231266022 -4.167438963365022E-11 -0.01589999347925186 0.04195000231266022 -0.027539607137441635 -0.02127835899591446 0.04194999858736992 -0.023632004857063293 -0.025726743042469025 0.04194999858736992 -0.018691571429371834 -0.02905074506998062 0.04194999858736992 -0.012934224680066109 -0.03110509365797043 0.04195000231266022 -0.006611591205000877 -0.03179999440908432 0.04195000231266022 -4.169164319334229E-11 -0.03110509365797043 0.04195000231266022 0.006611593067646027 -0.02905074506998062 0.04194999858736992 0.012934223748743534 -0.025726743042469025 0.04194999858736992 0.018691571429371834 -0.02127835899591446 0.04194999858736992 0.023632002994418144 -0.01589999347925186 0.04194999858736992 0.027539609000086784 0.03180000185966492 0.04195000231266022 -4.1868647437937057E-11 0.03110509365797043 0.04195000231266022 -0.006611591205000877 0.02905074506998062 0.04194999858736992 -0.012934224680066109 0.025726743042469025 0.04194999858736992 -0.018691571429371834 0.021278351545333862 0.04194999858736992 -0.023632004857063293 0.01590000092983246 0.04195000231266022 -0.027539607137441635 0.009826742112636566 0.04195000231266022 -0.03024359606206417 0.00332400924526155 0.04194999858736992 -0.03162579610943794 -0.0033240097109228373 0.04194999858736992 -0.03162579610943794 -0.009826742112636566 0.04195000231266022 -0.03024359606206417 -0.009826742112636566 0.04194999858736992 0.03024359419941902 -0.0033240097109228373 0.04194999858736992 0.03162579610943794 0.00332400924526155 0.04194999858736992 0.03162579610943794 0.009826742112636566 0.04194999858736992 0.03024359419941902 0.01590000092983246 0.04194999858736992 0.027539609000086784 0.021278351545333862 0.04194999858736992 0.023632002994418144 0.025726743042469025 0.04194999858736992 0.018691571429371834 0.02905074506998062 0.04194999858736992 0.012934223748743534 0.03110509365797043 0.04195000231266022 0.006611593067646027 </float_array>
          <technique_common>
            <accessor source="#mesh_1-position-array" count="318" stride="3">
              <param name="X" type="float" />
              <param name="Y" type="float" />
              <param name="Z" type="float" />
            </accessor>
          </technique_common>
        </source>
        <source id="mesh_1-normal" name="normal">
          <float_array id="mesh_1-normal-array" count="1812">0.9512360692024231 -1.4022247363243423E-08 0.30846384167671204 0.9309583306312561 2.8598664769674542E-08 0.3651253879070282 0.9505544900894165 -0.03784998133778572 0.30824270844459534 0.9687709808349609 1.154829920579914E-08 0.24795714020729065 0.9300941228866577 0.04003037512302399 0.3651335835456848 0.9687709808349609 2.7328059815090455E-09 0.24795719981193542 0.9977445602416992 7.398062717989262E-10 0.06712543219327927 0.9977445602416992 -1.019669770840892E-08 0.06712538003921509 0.9839818477630615 2.70799596080451E-08 -0.17826882004737854 0.9839817881584167 -7.98011878799798E-09 -0.17826898396015167 0.9061185121536255 3.3133606081037215E-08 0.4230239689350128 0.9061185121536255 -2.007105592838343E-07 0.42302393913269043 0.9061185717582703 -1.91070228083845E-07 0.4230238199234009 0.9061185121536255 -1.922995274128425E-08 0.42302387952804565 -0.6446456909179688 -5.254617576611054E-07 -0.7644814848899841 -0.6446466445922852 6.934719749551732E-07 -0.764480710029602 -0.28012558817863464 8.707972938282182E-07 -0.9599633812904358 -0.280124306678772 -4.0622211372465244E-07 -0.9599637389183044 0.1323237419128418 -4.1944292661355576E-07 -0.9912065267562866 0.13232146203517914 1.7969211967283627E-06 -0.9912068843841553 0.5221307873725891 1.5461272369066137E-06 -0.8528653979301453 0.522132396697998 -2.2864723803195375E-07 -0.8528644442558289 0.8226089477539062 -1.5243986695168132E-07 -0.5686075091362 0.8226094841957092 -1.0427625056763645E-06 -0.5686067342758179 0.9823473691940308 -3.430583603858395E-07 -0.18706588447093964 0.982347309589386 3.39974413066102E-08 -0.18706625699996948 0.9740161895751953 -4.11602165684144E-08 0.2264784276485443 0.9740161895751953 -1.0745639400511209E-07 0.2264784872531891 0.974016010761261 -1.0229545921447425E-07 0.22647911310195923 0.974016010761261 -6.547939790380042E-08 0.22647905349731445 0.9823473691940308 5.4084296152723255E-08 -0.18706588447093964 0.9823474287986755 -6.348118120058643E-08 -0.18706566095352173 0.8226092457771301 -1.92958168554469E-07 -0.5686070919036865 0.8226094245910645 -3.759600986086298E-07 -0.5686067938804626 0.522132396697998 -5.639099072141107E-07 -0.8528644442558289 0.5221308469772339 4.2731375060611754E-07 -0.8528653979301453 0.1323215663433075 4.966273650097719E-07 -0.9912068247795105 0.13232384622097015 -7.414420224449714E-07 -0.9912065267562866 -0.28012558817863464 -7.180715329013765E-07 -0.9599633812904358 -0.28012600541114807 -4.841856480197748E-07 -0.9599632620811462 -0.6446456909179688 -3.855886632209149E-07 -0.7644814848899841 -0.6446465253829956 2.3311896768518636E-07 -0.7644807696342468 -0.7888152599334717 -4.224624774451513E-07 -0.614630401134491 -0.7888152599334717 -3.177811720433965E-07 -0.614630401134491 -0.7888153195381165 -5.4417114370153286E-08 -0.6146302819252014 -0.7888152599334717 1.874239359267449E-07 -0.6146303415298462 -0.9509385824203491 -1.440898156346293E-08 -0.3093797266483307 -0.9507936835289001 0.0008943101856857538 -0.3098234236240387 -0.8544620871543884 -0.0009037255658768117 -0.5195130109786987 -0.8547054529190063 -2.683961497496057E-07 -0.519113302230835 -0.950793981552124 -0.0004832397971767932 -0.30982351303100586 -0.8547073006629944 0.0004868149699177593 -0.5191100239753723 -0.8544621467590332 -4.599584002562551E-08 -0.5195136666297913 -0.9509386420249939 4.6996369462704024E-08 -0.30937957763671875 -0.9964963793754578 1.2704748364456009E-08 -0.08363601565361023 -0.9964963793754578 -3.743920728993544E-09 -0.08363606780767441 0.9853823184967041 3.6242782108786287E-09 -0.17035764455795288 0.9853823184967041 -4.751767423982756E-09 -0.1703576147556305 0.9958370327949524 2.542474675237827E-09 0.09115147590637207 0.9958370327949524 -4.88302198675683E-09 0.09115150570869446 0.9380806088447571 -1.8557690495413226E-08 0.34641706943511963 0.8160693645477295 -3.096121048429268E-08 0.5779539942741394 0.8160693049430847 -4.0712222926231334E-08 0.5779540538787842 0.6381604671478271 -5.4233513679946554E-08 0.7699034214019775 0.6381608843803406 9.718311133610769E-08 0.7699030637741089 0.41653960943222046 1.1475584216213974E-07 0.909117579460144 0.16638728976249695 1.2446817265754362E-07 0.9860605001449585 -0.09516116231679916 1.256548927131007E-07 0.9954618811607361 -0.09516213089227676 -1.5121582919164211E-07 0.9954617619514465 -0.3501920998096466 -1.4228623967937892E-07 0.9366779327392578 -0.3501918315887451 -6.598144608460643E-08 0.9366779923439026 -0.5812362432479858 -5.732108476763642E-08 0.8137348294258118 -0.5812358260154724 1.0271594419464236E-07 0.8137351870536804 -0.7724681496620178 8.016136376909344E-08 0.6350535154342651 -0.7724683284759521 1.77134698020609E-08 0.6350533366203308 -0.9107874631881714 1.1516291920088406E-08 0.41287553310394287 -0.9867226481437683 4.530206432207251E-09 0.1624143272638321 -0.9867226481437683 -8.700589582133489E-09 0.1624142825603485 0.954616129398346 6.336383862048933E-09 -0.29783889651298523 0.954616129398346 -1.3332600801163608E-08 -0.29783889651298523 -0.9994911551475525 1.4278326299077548E-09 0.031896501779556274 -0.9994911551475525 -1.7087045112162969E-09 0.031896501779556274 -1.268694802547543E-07 -1 1.2858278068961226E-06 1.5415429288623272E-07 -1 9.576005055578207E-08 1.058171790191409E-07 -1 -6.154894549581513E-07 1.0432350450173544E-07 -1 -6.034860575709899E-07 -7.601538243307004E-08 -1 -1.1310006264864114E-08 3.820672844767614E-08 -1 1.689218187550523E-08 9.279140300577637E-08 -1 3.4037677210108086E-07 5.7059960312244584E-08 -1 -6.536803311973927E-07 -7.578541350028445E-09 -1 2.248782493552426E-08 -1.5676857856306015E-07 -1 6.697395065202727E-07 -3.672526531772746E-07 -1 2.810604087244428E-07 -1.3598988743979135E-06 -1 2.146520955648157E-06 -1.1895996010480303E-07 -1 -6.655120188270303E-08 -8.4330190475157E-07 -1 7.086695177349611E-07 4.158243314122956E-07 -1 -3.2647236025695747E-07 5.041435713337705E-08 -1 1.558513758936897E-06 -7.069448315633053E-08 -1 -4.0246860066872614E-08 -2.8615176006496768E-08 -1 -3.55455796352544E-07 1.2936344262470811E-07 -1 1.7300540093856398E-06 -7.503111021378572E-08 -1 1.766800750147013E-07 2.992859151618177E-07 -1 -8.818626042739197E-07 -1.6680237990840396E-07 -1 -2.595533317162335E-07 -1.945411121084817E-08 -1 3.72657638081364E-07 6.294936270023754E-07 -1 -6.873527809148072E-07 3.4510387081354565E-07 -1 1.1397899868370587E-07 1.809751211112598E-07 -1 -2.3364150081306434E-07 7.620604947078391E-08 -1 -3.6751337972873444E-08 -1.4744384202458605E-07 -1 2.763601116839709E-07 8.594874856271417E-08 1 -3.2359437796003476E-07 4.7674615188952885E-07 1 -1.216639702761313E-06 2.2001310640007432E-07 1 -1.2943658589392726E-07 -3.8989486483842484E-07 1 9.159280693893379E-07 8.804820872398977E-09 1 -3.5315643742706015E-08 -5.3187156900946775E-09 1 -4.2823529611268896E-07 7.04641109905424E-08 1 2.0875656758789773E-08 7.365384391277985E-08 1 1.906456859046557E-08 2.234287066471552E-08 1 1.875536099760211E-07 -3.846070129043255E-08 1 1.3791269282137364E-07 1.1292156614217674E-06 1 -3.4490428788558347E-06 1.7911737870690558E-07 1 -7.719305585851544E-07 -5.606910917776986E-07 1 2.962432574804552E-07 2.2026030421784526E-07 1 -5.7774322215209395E-08 -2.7526886015039054E-07 1 2.5072259290936927E-07 2.2075278494071426E-08 1 6.272665498130436E-09 1.6866265184489748E-07 1 -1.5061112890180084E-07 -3.281368421426123E-08 1 1.3145725574759126E-07 2.173181634645971E-08 1 2.895109929568207E-08 -4.609474757444332E-08 1 2.1037040198734758E-07 7.578541350028445E-09 1 -2.248782493552426E-08 2.111819412675686E-06 1 -5.818445742988843E-07 3.7825142129577216E-08 1 2.864655073153699E-07 4.549912944185053E-07 1 -3.949459141949774E-07 -1.0500188807327504E-07 1 1.9700009090684034E-07 6.954840703343734E-09 1 1.4126813496773138E-08 -1.233825770441399E-07 1 4.032005307408326E-08 -4.170204093156826E-08 1 -6.873770530546608E-08 -0.003422906855121255 -0.9999672770500183 0.007333463989198208 -0.0034206907730549574 -0.9999672770500183 0.007327219471335411 -0.003421712899580598 -0.9999672770500183 0.007328889332711697 -0.0034217711072415113 -0.9999672770500183 0.007329053245484829 -0.003421520348638296 -0.9999672770500183 0.007328643463551998 -0.003421633969992399 -0.9999672770500183 0.007328963838517666 -0.003421803703531623 -0.9999672770500183 0.007329240906983614 -0.0034217715729027987 -0.9999672770500183 0.007329378742724657 -0.0034213114995509386 -0.9999672770500183 0.007328764069825411 -0.0034217224456369877 -0.9999672770500183 0.007329931017011404 -0.0034220239613205194 0.9999672770500183 0.0073293414898216724 -0.0034218120854347944 0.9999672770500183 0.007329058833420277 -0.003421651665121317 0.9999672770500183 0.00732860341668129 -0.0034195987973362207 0.9999673366546631 0.007326641120016575 -0.0034214442130178213 0.9999672770500183 0.0073292250744998455 -0.0034215166233479977 0.9999672770500183 0.007329343352466822 -0.003421000437811017 0.9999672770500183 0.007327888626605272 -0.003423004876822233 0.9999672770500183 0.00733116315677762 -0.003422748763114214 0.9999672770500183 0.007330440916121006 -0.0034219331573694944 0.9999672770500183 0.007329109124839306 0.4230237603187561 -4.2201371286409994E-08 -0.9061185717582703 0.02516874298453331 0.7337151169776917 -0.6789909601211548 -1.903304770733971E-12 0.7289160490036011 -0.6846030950546265 0.0659986287355423 0.7369763851165771 -0.6726886034011841 0.16237683594226837 0.7345965504646301 -0.6587880253791809 0.16237671673297882 0.7345965504646301 -0.6587880253791809 0.3153168857097626 0.7345965504646301 -0.600785493850708 0.31531625986099243 0.7345967292785645 -0.6007855534553528 0.4499310553073883 0.734596848487854 -0.5078676342964172 0.4499317407608032 0.7345966100692749 -0.5078673958778381 0.5583975911140442 0.7345966100692749 -0.3854347765445709 0.5583980679512024 0.7345964312553406 -0.38543444871902466 0.6344130039215088 0.734596312046051 -0.24059998989105225 0.634412407875061 0.7345966696739197 -0.24060070514678955 0.6735568046569824 0.7345967292785645 -0.0817858949303627 0.6735571026802063 0.7345964908599854 -0.08178526908159256 0.6735570430755615 0.7345964312553406 0.08178593963384628 0.673556923866272 0.7345966696739197 0.08178526908159256 0.6344127058982849 0.7345966696739197 0.24059970676898956 0.6344127058982849 0.734596312046051 0.2406008243560791 0.5583977103233337 0.734596312046051 0.3854351341724396 0.5583978891372681 0.7345965504646301 0.3854343593120575 0.4499313533306122 0.7345965504646301 0.5078677535057068 0.44993171095848083 0.7345967888832092 0.5078670978546143 0.31531667709350586 0.7345967888832092 0.6007853150367737 0.3153163492679596 0.7345966100692749 0.6007856726646423 0.1623767763376236 0.7345966100692749 0.6587879657745361 0.16237671673297882 0.7345966100692749 0.6587879657745361 1.890332725421051E-12 0.7345966696739197 0.6785040497779846 -0.1623767763376236 0.7345966100692749 0.6587879657745361 -0.16237647831439972 0.7345967292785645 0.6587879657745361 -0.31531667709350586 0.7345967888832092 0.6007853150367737 -0.3153171241283417 0.7345966100692749 0.6007852554321289 -0.4499313235282898 0.7345966100692749 0.5078677535057068 -0.44993141293525696 0.7345965504646301 0.507867693901062 -0.5583981275558472 0.7345965504646301 0.385434091091156 -0.558397114276886 0.7345969080924988 0.3854347765445709 -0.6344113945960999 0.7345971465110779 0.24060189723968506 -0.6344130039215088 0.734596312046051 0.24060000479221344 -0.673557460308075 0.7345962524414062 0.08178463578224182 -0.6735571026802063 0.7345964908599854 0.08178529143333435 -0.6735571622848511 0.7345965504646301 -0.08178459107875824 -0.6735572814941406 0.734596312046051 -0.08178529143333435 -0.6344122886657715 0.7345961928367615 -0.24060238897800446 -0.6344122886657715 0.7345970273017883 -0.24059973657131195 -0.5583978295326233 0.7345970869064331 -0.385433554649353 -0.5583974719047546 0.7345966100692749 -0.38543495535850525 -0.449931263923645 0.7345965504646301 -0.5078678727149963 -0.4499312937259674 0.7345965504646301 -0.5078678131103516 -0.3153168559074402 0.7345966100692749 -0.6007854342460632 -0.3153170645236969 0.7345966696739197 -0.6007851958274841 -0.1623767912387848 0.7345966696739197 -0.6587879061698914 -0.1623765081167221 0.7345965504646301 -0.6587880849838257 -0.0659986287355423 0.7369763851165771 -0.6726886034011841 -0.025168418884277344 0.7337150573730469 -0.6789909601211548 -1.1026134671965337E-07 1 -1.880450355429275E-07 -8.37043234724888E-09 1 -2.0362417529895538E-08 1.6622381693309762E-08 1 -1.1645342468113995E-08 2.535161236494332E-08 1 -1.1148216794154564E-09 -4.6752603566346806E-08 1 -1.5720909019023566E-08 -3.1946708389796186E-08 1 -2.543848465208498E-09 2.734645658452272E-15 1 -4.205592540884595E-10 2.734645658452272E-15 1 -4.2055930959961074E-10 4.970940992166106E-08 1 -3.7244185513429784E-09 2.9872655460394526E-08 1 -1.2301527796410028E-08 -1.246557879142074E-08 1 -3.725142860844244E-09 3.554734107069635E-08 1 1.7679722574825973E-08 -9.91357396173953E-09 1 4.1047382381975694E-08 1.0963736585267725E-08 1 -7.693306436351577E-09 9.590283411853306E-08 1 -6.813291264506915E-08 8.719655397726456E-08 1 -3.6349231180565766E-08 -2.0134491407475252E-08 1 6.71375346428249E-08 -2.2936900379022518E-08 1 8.809595897218969E-08 2.734807865261671E-15 1 5.789328483274403E-08 2.7344529584567715E-15 1 -6.963306731222474E-08 -5.681930304035632E-08 1 3.691246419634808E-08 -4.5921336067067386E-08 1 1.1841532909784291E-07 -2.3976905794143022E-08 1 5.3285610590592114E-08 -2.67176076818032E-08 1 4.32802309546787E-08 -2.198709836420676E-08 1 1.2999518794742926E-08 -1.0749156587053221E-07 1 -1.86621321063285E-07 -2.823658284967223E-08 1 -7.594501916230456E-09 8.370419912751004E-09 1 -2.036241220082502E-08 1.1026115487311472E-07 1 -1.880450213320728E-07 1.0749162271395107E-07 1 -1.8662143475012272E-07 1.3055991843202719E-08 1 3.3850312775030034E-08 3.3233593654813376E-08 1 1.9492675917831548E-08 9.880513296423032E-09 1 1.047468316528466E-07 5.335370900638736E-08 1 6.283071485313485E-08 6.993042234171298E-08 1 -6.114191819506232E-08 2.734732902845839E-15 1 3.094049816354527E-08 2.734899768336448E-15 1 9.08810164901297E-08 1.8636512777447933E-08 1 5.5934524567646804E-08 1.7847110456159498E-09 1 -7.009535352153762E-08 -5.239394340605941E-08 1 9.07034589658906E-08 -6.847339761861804E-08 1 3.200287679305802E-08 -4.855993296359884E-08 1 -9.546633350510092E-08 9.913583731702147E-09 1 4.104739304011673E-08 -3.554727356913645E-08 1 1.7679726127539652E-08 -7.218848452339444E-08 1 -4.262108532770981E-08 7.962930226312892E-08 1 1.0330417410386872E-08 8.708765619758196E-08 1 1.9327792699641577E-08 -1.1336076255474836E-07 1 -2.1276708395134847E-08 -9.718418425563868E-08 1 -6.879756764277545E-09 1.1659152931997596E-07 1 -8.169635634658334E-09 9.491809294104314E-08 1 -1.754088252425845E-08 -7.607739860304719E-08 1 1.709752694978306E-08 -8.955247920994225E-08 1 1.3791455977241185E-08 7.218864794822366E-08 1 -4.262114217112867E-08 0.0012753752525895834 -0.9999991655349731 0.00015575381985399872 0.0008524098666384816 -0.9999991655349731 0.0009613478323444724 0.0010571102611720562 -0.9999991655349731 0.0007302885642275214 0.001201639766804874 -0.9999991655349731 0.00045491059427149594 8.409785145660042E-16 -0.9999991655349731 0.0012847768375650048 0.00030741922091692686 -0.9999991655349731 0.0012474491959437728 0.000597061007283628 -0.9999991655349731 0.0011376023758202791 -0.0008524119039066136 -0.9999991655349731 0.000961346726398915 -0.0005970597849227488 -0.9999991655349731 0.0011376035399734974 -0.00030741968657821417 -0.9999991655349731 0.0012474494287744164 -0.0012753760674968362 -0.9999991655349731 0.00015575563884340227 -0.0012016408145427704 -0.9999991655349731 0.0004549110308289528 -0.0010571111924946308 -0.9999991655349731 0.0007302891463041306 -0.0010568348225206137 -0.9999991655349731 -0.0007306790794245899 -0.0012015108950436115 -0.9999991655349731 -0.0004550220910459757 -0.0012753760674968362 -0.9999991655349731 -0.00015533954137936234 -0.0003073178813792765 -0.9999991655349731 -0.001247440348379314 -0.0005971597856841981 -0.9999991655349731 -0.0011375179747119546 -0.0008526275050826371 -0.9999991655349731 -0.0009611814166419208 0.0005971610662527382 -0.9999991655349731 -0.0011375168105587363 0.0003073174157179892 -0.9999991655349731 -0.0012474402319639921 -6.310208262763194E-15 -0.9999991655349731 -0.0012847554171457887 0.0012015097308903933 -0.9999991655349731 -0.0004550216835923493 0.0010568340076133609 -0.9999991655349731 -0.0007306784973479807 0.0008526254678145051 -0.9999991655349731 -0.0009611825225874782 0.0012753752525895834 -0.9999991655349731 -0.00015533770783804357 -0.9927090406417847 3.6680017245771523E-08 -0.12053529173135757 -0.9350161552429199 1.0790964921625346E-07 -0.354605108499527 -0.9350160956382751 9.984394644391159E-09 -0.35460519790649414 -0.8229840993881226 1.599462784440675E-08 -0.5680643916130066 -0.6631217002868652 2.1075363676459347E-08 -0.7485116124153137 -0.6631214022636414 -3.214029788978223E-07 -0.7485118508338928 -0.46472349762916565 -3.802052503942832E-07 -0.885455846786499 -0.46472400426864624 1.4719179830535722E-07 -0.8854556083679199 -0.23931556940078735 1.6140242564688378E-07 -0.9709418416023254 -0.23931542038917542 2.7338188601788715E-08 -0.9709419012069702 -2.7830695647351744E-12 2.8156359022091237E-08 -1 0.23931586742401123 2.7338185049075037E-08 -0.9709417819976807 0.23931573331356049 1.6140241143602907E-07 -0.9709417819976807 0.4647223949432373 1.4719194041390438E-07 -0.8854564428329468 0.4647229015827179 -3.8020539250283036E-07 -0.8854561448097229 0.6631230115890503 -3.2140235362021485E-07 -0.7485104203224182 0.6631227731704712 2.1075333478393077E-08 -0.7485106587409973 0.8229840993881226 1.5994622515336232E-08 -0.5680643916130066 0.9350161552429199 9.984385762606962E-09 -0.354605108499527 0.9350160956382751 1.0790967053253553E-07 -0.35460519790649414 0.9927088618278503 3.668043291327194E-08 -0.1205366775393486 0.9927088618278503 -1.8470558416083804E-08 -0.12053661048412323 0.9927088618278503 1.8470558416083804E-08 0.12053664773702621 0.9927088618278503 2.989266789654721E-08 0.12053664028644562 0.9350161552429199 8.79408403875459E-08 0.354605108499527 0.9350161552429199 5.433829386447542E-08 0.35460513830184937 0.8229840993881226 8.704795106950769E-08 0.5680643916130066 0.8229841589927673 1.4087800082052127E-07 0.5680643320083618 0.6631229519844055 1.8562802495125652E-07 0.7485105395317078 0.6631228923797607 1.1469880689674028E-07 0.7485105395317078 0.4647226631641388 1.3568383394613193E-07 0.8854562640190125 0.23931558430194855 1.4878330034662213E-07 0.9709418416023254 0.2393161654472351 6.85040618009225E-07 0.9709417223930359 2.7830695647351744E-12 7.055424475765903E-07 1 -0.23931527137756348 6.850407316960627E-07 0.9709419012069702 -0.23931585252285004 1.4878330034662213E-07 0.9709417819976807 -0.46472376585006714 1.3568374868100364E-07 0.8854557275772095 -0.6631215810775757 1.1469898453242422E-07 0.7485116720199585 -0.6631215214729309 1.8562833759006026E-07 0.7485117316246033 -0.8229840993881226 1.4087801503137598E-07 0.5680643916130066 -0.8229841589927673 8.704794396408033E-08 0.5680643320083618 -0.9350161552429199 5.433829386447542E-08 0.354605108499527 -0.9350161552429199 8.794085459840062E-08 0.35460513830184937 -0.9927090406417847 2.989234815231612E-08 0.12053532898426056 -0.9927090406417847 1.847035946411779E-08 0.12053531408309937 -0.9927090406417847 -1.847035946411779E-08 -0.12053535133600235 5.615074769593775E-07 -1 -3.8697092463735316E-07 3.0536179451701173E-07 -1 -7.733258655662212E-08 -9.63609707582691E-08 -1 9.297148295672741E-08 -4.6383757990042795E-07 -1 4.4303047275207064E-07 -3.7134359587298604E-08 -1 3.1654417398385704E-07 6.095040134823648E-07 -1 -1.6199177821363264E-07 -2.7347949480092254E-15 -1 -5.3226877128054184E-08 6.382448418662534E-07 -1 3.21599941344175E-07 6.247859829500158E-08 -1 -5.723142404434611E-09 3.234237908600335E-07 -1 3.9540421425954264E-07 -6.481888590315066E-07 -1 -3.245240520755033E-07 -8.076894459918549E-07 -1 -6.426660661418282E-07 8.375025828399885E-08 -1 2.706361499349441E-07 2.1714944864470453E-07 -1 2.1198583510795288E-07 -2.73409551055303E-15 -1 1.980483403940525E-07 2.829629863754235E-07 -1 1.1207396966028682E-07 -3.08649958924434E-08 -1 5.60719115583197E-08 -4.779727191817074E-07 -1 1.3285362854276173E-07 -1.2732162986139883E-06 -1 -1.0287793372754095E-07 6.661196039203787E-07 -1 -1.780429386144533E-07 -1.3377212226828306E-08 -1 -4.661050070353667E-07 5.66333540064079E-07 -1 -7.34200341412361E-07 4.3309970010341203E-07 -1 -1.5414636322930164E-07 -1.411814594121097E-07 -1 5.211969096308167E-07 3.562001893442357E-08 -1 2.709030333392093E-08 -4.751189806029288E-07 -1 5.057288490206702E-07 -1.6699877392056806E-07 -1 -1.056705087876253E-07 8.666938811074942E-07 -1 -8.774483148954459E-07 3.9133092855081486E-07 -1 -1.7699542809168634E-07 -4.183301598459366E-07 -1 2.9642006893482176E-07 -5.2393414762264E-07 -1 2.3758126133088808E-07 -2.8088834369555116E-07 -1 2.2198165083864296E-07 2.7069553709679894E-08 -1 3.573785249955108E-07 6.119714726082748E-07 -1 3.874156675465201E-07 9.918744581227656E-08 -1 8.75866348337695E-08 -6.05443403856043E-07 -1 -3.431185646718404E-08 -7.670433319617587E-07 -1 -1.549659600641462E-07 -2.086734518513822E-08 -1 7.347075126062919E-08 3.229822027606133E-07 -1 3.957090370931837E-07 5.405129854807456E-07 -1 6.50000686164276E-07 1.3644554996972147E-07 -1 -4.4668564669336774E-07 1.2664804671658203E-07 -1 -3.6698082794828224E-07 2.5675987558315683E-07 -1 1.6585727280471474E-07 4.529842811962226E-08 -1 1.0318406111764489E-06 -1.3644554996972147E-07 -1 -4.4668564669336774E-07 4.266148323495145E-08 -1 -9.328031183031271E-07 4.258290431380374E-08 -1 7.771558330205153E-07 9.067314010735572E-08 -1 6.812344395257242E-07 2.5347958398924675E-07 -1 -5.781882919109194E-07 -1.2468477450511273E-07 -1 3.1293305724489073E-09 -1.9991666988516954E-07 -1 1.5629471761258174E-07 -4.2170066194557876E-07 -1 -1.0451889664864211E-07 -5.66333540064079E-07 -1 -7.34200341412361E-07 2.8918481120854267E-07 -1 5.487059979714104E-07 3.3821820011326054E-07 -1 9.85273686637811E-07 -2.7337734262748367E-15 -1 3.137863870961155E-07 -2.7356252520557714E-15 -1 -3.5160297784386785E-07 -1.4263380876400333E-07 -1 -7.561072834505467E-07 -2.8918481120854267E-07 -1 5.487059979714104E-07 -0.9954719543457031 -1.439685592963258E-09 -0.0950554609298706 -0.9594931602478027 -4.267045827788252E-09 -0.2817319929599762 -0.9594931602478027 -7.347866759488397E-09 -0.2817319929599762 -0.8888351321220398 -1.195104815110426E-08 -0.4582271873950958 -0.8888351321220398 6.302299571103731E-09 -0.45822712779045105 -0.786052942276001 8.501949366745976E-09 -0.6181591749191284 -0.7860528826713562 -2.9061856920975515E-08 -0.6181592345237732 -0.6548610925674438 -3.553045146986733E-08 -0.7557492852210999 -0.6548611521720886 -2.3488427203233186E-08 -0.7557492256164551 -0.5000001788139343 -2.6915769169022496E-08 -0.8660252690315247 -0.5000001788139343 -3.5540239196052426E-08 -0.8660253286361694 -0.32706785202026367 -3.87812661983844E-08 -0.9450008869171143 -0.32706788182258606 -2.9370303522568975E-08 -0.9450008273124695 -0.1423148512840271 -3.0763313674242454E-08 -0.9898214340209961 -0.1423148214817047 -3.864916564566556E-08 -0.9898214340209961 0.04758201539516449 -3.900237643961191E-08 -0.9988673329353333 0.23575888574123383 -3.794594150008379E-08 -0.9718115925788879 0.4154151380062103 -3.55180382882736E-08 -0.9096319675445557 0.41541507840156555 -2.1024066043651146E-08 -0.9096319675445557 0.58005690574646 -1.8827064351967238E-08 -0.8145759701728821 0.58005690574646 -2.5316744256542734E-08 -0.8145759701728821 0.7237340211868286 -2.144742339282857E-08 -0.6900790333747864 0.7237340211868286 -2.2821879497314512E-08 -0.6900790333747864 0.8412535786628723 -1.787974568401296E-08 -0.5406407117843628 0.8412535190582275 3.1285296575589427E-09 -0.5406407713890076 0.9283678531646729 2.1507018388433607E-09 -0.3716626465320587 0.9283678531646729 -5.629120281014366E-09 -0.3716626465320587 0.9819287657737732 -2.8663518225613416E-09 -0.18925078213214874 0.9819287657737732 -4.9358632736584696E-09 -0.18925076723098755 1 -2.753444495925397E-15 -2.783068914213871E-12 0.9819287657737732 -7.126144563329717E-09 0.18925081193447113 0.9819287657737732 4.935857944587951E-09 0.18925076723098755 0.9283678531646729 9.693352787110143E-09 0.37166261672973633 0.9283679127693176 2.9317231309278213E-08 0.37166255712509155 0.8412535786628723 4.264645170337644E-08 0.5406407117843628 0.8412535190582275 1.4100482559342709E-08 0.5406407713890076 0.7237339615821838 1.7997992429741316E-08 0.6900790929794312 0.58005690574646 2.1245002201908392E-08 0.8145759105682373 0.4154151678085327 2.3724163966676315E-08 0.9096319079399109 0.4154149293899536 -4.419882060346936E-08 0.9096320271492004 0.23575906455516815 -4.722010871205384E-08 0.9718115329742432 0.23575933277606964 2.534587295599522E-08 0.9718114733695984 0.04758189618587494 2.6051518275949093E-08 0.9988673329353333 0.047581423074007034 -1.0127519090019632E-07 0.9988673329353333 -0.14231516420841217 -1.0035802233687718E-07 0.9898213744163513 -0.14231497049331665 -4.8095206039988625E-08 0.9898214340209961 -0.32706767320632935 -4.591738544945656E-08 0.945000946521759 -0.32706740498542786 2.4646627849733704E-08 0.9450010061264038 -0.5000001788139343 2.2586858605677662E-08 0.8660253286361694 -0.5000003576278687 -4.20799715072917E-08 0.8660252094268799 -0.6548610329627991 -3.6721690577223853E-08 0.7557492852210999 -0.6548611521720886 -7.66254331097116E-08 0.7557492256164551 -0.7860528826713562 -6.267518415370432E-08 0.6181592345237732 -0.8888351321220398 -4.6459653901820275E-08 0.45822709798812866 -0.8888351321220398 -2.226515505299176E-08 0.4582271873950958 -0.9594931602478027 -1.3689293254515178E-08 0.2817319929599762 -0.9594931602478027 -1.0608470546458193E-08 0.2817319929599762 -0.9954719543457031 -3.579260665631523E-09 0.09505543857812881 -0.9954719543457031 -2.5398014802391344E-09 0.09505544602870941 -0.9954719543457031 2.5398070313542576E-09 -0.09505544602870941 -6.481044465544983E-07 1 -3.666777388389164E-07 -2.460014911775943E-07 1 -4.0862428818400076E-07 -3.216388222426758E-07 1 -2.269448202696367E-07 2.8051235290149634E-07 1 -3.688707863602758E-07 1.4590402486192033E-07 1 8.454291844373074E-08 -1.864413690100264E-07 1 2.1192768429045827E-07 -9.163355940700058E-08 1 -2.8463762191677233E-07 -3.548028360000899E-07 1 -1.3843984447703406E-07 -3.645289723408496E-07 1 -3.4325530862133746E-08 2.7337734262748367E-15 1 -3.137863870961155E-07 2.734958001851572E-15 1 1.1179885461842787E-07 -1.605615977950947E-07 1 2.7924056666961405E-07 -1.6001352776129352E-07 1 2.851074327736569E-07 7.784080935380189E-08 1 -5.711662609542145E-08 1.0127837413165253E-07 1 6.563985976981712E-08 3.120008216228598E-07 1 -3.749218535631371E-07 2.98528647135754E-07 1 -4.2030143276861054E-07 2.2883887140778825E-07 1 -1.7903938953622855E-07 1.644267086930995E-07 1 -3.3375610541952483E-07 4.0124387368223324E-08 1 -2.2954987910495106E-10 1.2446379571429134E-07 1 -1.892635452804825E-07 5.9527700102535164E-08 1 -2.7420580295256514E-07 7.652084832443506E-08 1 -3.3071259508687945E-07 2.522347415379045E-07 1 -1.4532237457842712E-07 2.288142439965668E-07 1 2.0717898507882637E-09 1.4636032119597076E-07 1 -6.912366501410361E-08 1.485182536953289E-07 1 -1.9972233644693915E-07 3.9819255448492186E-07 1 -2.2701147628367835E-08 3.9012073216326826E-07 1 -8.421982755635327E-08 -1.3104384777307132E-07 1 -3.851143617339403E-07 -2.285544553615182E-07 1 -7.207116254903667E-07 -1.264891835717208E-07 1 -6.738466140632227E-07 3.589481423205143E-07 1 3.577724214665068E-07 2.7352946974481054E-15 1 2.3283834593712527E-07 -2.799449703161372E-07 1 -1.7542991770369554E-07 2.5990578933487996E-07 1 -4.617134052864458E-08 -2.876048483813065E-07 1 -6.153503022687801E-07 4.7930587498967725E-08 1 -5.717898829971091E-07 4.3953488670922525E-07 1 -2.822895623921795E-07 -6.848537736914295E-07 1 -3.005669952926837E-07 5.7072476522535E-08 1 6.122467084423988E-07 -2.192288803826159E-07 1 1.1518999798454388E-07 2.394462583765744E-08 1 1.1123710663696329E-07 -4.0735500306254835E-08 1 2.2066910077001012E-08 -8.376986215807847E-08 1 2.765379036873128E-08 -2.1609810119116446E-07 1 -1.1295364998886726E-07 2.7341884724189913E-15 1 -1.6469486752157536E-07 3.430946549087821E-07 1 1.1342217476340011E-07 1.1860845461342251E-07 1 1.915559550980106E-07 8.625215741631109E-08 1 1.7215533887338097E-07 1.7278484421012763E-08 1 2.0382576337851788E-07 1.886659539707125E-08 1 2.0448439386200334E-07 1.6523199519724585E-07 1 1.1998022841908096E-07 -3.6829948157901526E-07 1 -1.1051002779538521E-08 -7.497968823599876E-08 1 -2.1901719549077825E-07 -1.0431554642309493E-07 1 -2.2148076084249624E-07 -3.023761223630572E-07 1 -5.046383222406803E-08 -3.4529978165664943E-07 1 -4.713238155318322E-08 -4.670786779570335E-07 1 8.135270945786033E-08 3.2859938414731005E-07 1 -1.1538622146645139E-07 1.434003991107602E-07 1 1.268708871293711E-07 -2.079430174717345E-07 1 2.7982650863123126E-07 2.7344597347203495E-15 1 -6.718920531056938E-08 -0.994521975517273 -7.723887085475667E-10 -0.10452764481306076 -0.9510564804077148 -2.283432998240187E-09 -0.3090170621871948 -0.9510564804077148 -5.576271389085008E-11 -0.3090170621871948 -0.8660256266593933 -9.022774194455963E-11 -0.49999961256980896 -0.7431451082229614 -1.207494104704665E-10 -0.6691303253173828 -0.7431450486183167 -1.2747032762661092E-08 -0.6691303849220276 -0.5877842903137207 -1.5411908194096213E-08 -0.8090177178382874 -0.5877842903137207 -7.370802190820314E-09 -0.8090176582336426 -0.40673717856407166 -8.32313240550775E-09 -0.9135451912879944 -0.40673717856407166 -6.750505043839894E-09 -0.9135451912879944 -0.2079116851091385 -7.22787563134375E-09 -0.9781476259231567 -0.20791184902191162 2.1293569574254434E-08 -0.978147566318512 -2.7830695647351744E-12 2.17692814885595E-08 -1 0.2079116851091385 2.1293569574254434E-08 -0.9781476259231567 0.20791184902191162 -7.22787607543296E-09 -0.978147566318512 0.4067367613315582 -6.7505090406427826E-09 -0.9135454297065735 0.4067367613315582 -8.323136846399848E-09 -0.9135454297065735 0.5877853035926819 -7.370798638106635E-09 -0.8090169429779053 0.5877853631973267 -1.5411895759598337E-08 -0.8090168833732605 0.7431445717811584 -1.2747047861694227E-08 -0.6691309213638306 0.7431445121765137 -1.2075371258468692E-10 -0.6691309809684753 0.8660256266593933 -9.023251590356551E-11 -0.49999961256980896 0.9510564804077148 -5.5767959694641434E-11 -0.3090170621871948 0.9510564804077148 -2.2834381052661E-09 -0.3090170621871948 0.9945218563079834 -7.724023642907696E-10 -0.1045287474989891 0.9945218563079834 3.747872012738185E-10 -0.1045287549495697 0.9945218563079834 -3.7479264136663915E-10 0.10452874004840851 0.9945218563079834 1.919586045673327E-09 0.10452872514724731 0.9510564804077148 5.674854808290775E-09 0.30901703238487244 0.9510564804077148 -1.3509930063548836E-08 0.309017151594162 0.8660255670547485 -2.185950265243264E-08 0.4999997317790985 0.8660256862640381 2.2039946756535755E-08 0.4999995231628418 0.7431445717811584 2.949524890993871E-08 0.6691309213638306 0.7431443333625793 -3.229559197848175E-08 0.6691311597824097 0.5877853631973267 -3.90471726063879E-08 0.8090169429779053 0.5877857208251953 4.301688960595129E-08 0.8090166449546814 0.40673673152923584 4.8574875677331875E-08 0.9135454297065735 0.40673622488975525 -4.40922462985327E-08 0.9135456085205078 0.20791171491146088 -4.721025703702253E-08 0.978147566318512 0.20791228115558624 5.2009884399240036E-08 0.9781474471092224 2.7830695647351744E-12 5.317182427688749E-08 1 -0.20791171491146088 5.2009891504667394E-08 0.978147566318512 -0.20791228115558624 -4.721024993159517E-08 0.9781474471092224 -0.40673714876174927 -4.409222498225063E-08 0.9135452508926392 -0.4067366421222687 4.8574879230045553E-08 0.9135454297065735 -0.5877842903137207 4.301694644937015E-08 0.8090177178382874 -0.5877846479415894 -3.9047193922669976E-08 0.8090174198150635 -0.7431451082229614 -3.229554579320393E-08 0.669130265712738 -0.7431448698043823 2.9495238251797673E-08 0.6691305637359619 -0.8660255670547485 2.203996096739047E-08 0.4999997317790985 -0.8660256862640381 -2.1859486665221084E-08 0.4999995231628418 -0.9510564804077148 -1.350992029358622E-08 0.30901703238487244 -0.9510564804077148 5.674862357807342E-09 0.309017151594162 -0.994521975517273 1.919571390729402E-09 0.10452762991189957 -0.994521975517273 -3.74783121204203E-10 0.10452762246131897 -0.994521975517273 3.7478870007490173E-10 -0.10452763736248016 2.780863430154601E-12 0.04080188646912575 0.999167263507843 6.005129193908942E-07 1 8.097066483969684E-08 2.734669163616558E-15 1 8.055031308629168E-09 2.0403330580620604E-08 1 8.055031308629168E-09 -1.343234657724679E-06 1 -6.834658279331052E-07 2.9325164518922975E-07 1 1.754280134491637E-07 -3.820923382136243E-07 1 -8.069649481967645E-08 -1.7791845152714814E-07 1 -3.0372174109061234E-08 2.5772294520720607E-07 1 2.2524387688349634E-08 -1.0678861883661739E-07 1 2.2524387688349634E-08 4.862701530328195E-08 1 4.628060601419293E-09 -2.081649341789671E-08 1 2.1744329004036445E-08 1.0619856283256013E-07 1 -2.6426102195387102E-08 -7.843223670533916E-08 1 1.90812965428222E-08 8.855658251150089E-08 1 3.837159567865456E-08 1.3715713009787578E-07 1 5.6803376224934254E-08 2.0816498746967227E-08 1 2.1744329004036445E-08 -1.1679153288923771E-07 1 -6.940346253259122E-08 -1.7321931977676286E-07 1 -1.0835275077170081E-07 2.1491787549621222E-07 1 9.535722966802496E-08 2.734708127132132E-15 1 2.2053686876688516E-08 -6.076667204979458E-07 1 8.055031308629168E-09 -2.0403325251550086E-08 1 8.055031308629168E-09 -4.862700819785459E-08 1 4.628060601419293E-09 -3.9980292854124855E-07 1 -7.554560710332225E-08 2.7478213837639487E-07 1 6.364357929555808E-09 1.0991105909852195E-06 1 6.364357929555808E-09 </float_array>
          <technique_common>
            <accessor source="#mesh_1-normal-array" count="604" stride="3">
              <param name="X" type="float" />
              <param name="Y" type="float" />
              <param name="Z" type="float" />
            </accessor>
          </technique_common>
        </source>
        <vertices id="mesh_1-vertices">
          <input semantic="POSITION" source="#mesh_1-position" />
        </vertices>
        <triangles material="default" count="628">
          <input semantic="VERTEX" source="#mesh_1-vertices" offset="0" />
          <input semantic="NORMAL" source="#mesh_1-normal" offset="1" />
          <p>0 0 1 0 2 0 3 1 4 1 5 1 5 2 4 2 6 2 5 3 6 3 7 3 2 4 7 4 0 4 0 5 7 5 6 5 0 6 6 6 8 6 8 7 6 7 9 7 8 8 9 8 10 8 10 9 9 9 11 9 4 10 3 10 12 10 12 11 3 11 13 11 14 12 15 12 1 12 1 13 15 13 2 13 16 14 17 14 18 14 16 15 18 15 19 15 19 16 18 16 20 16 19 17 20 17 21 17 21 18 20 18 22 18 21 19 22 19 23 19 23 20 22 20 24 20 23 21 24 21 25 21 25 22 24 22 26 22 25 23 26 23 27 23 27 24 26 24 28 24 27 25 28 25 29 25 29 26 28 26 12 26 29 27 12 27 13 27 15 28 14 28 30 28 15 29 30 29 31 29 31 30 30 30 32 30 31 31 32 31 33 31 33 32 32 32 34 32 33 33 34 33 35 33 35 34 34 34 36 34 35 35 36 35 37 35 37 36 36 36 38 36 37 37 38 37 39 37 39 38 38 38 40 38 39 39 40 39 41 39 41 40 40 40 42 40 41 41 42 41 43 41 17 42 16 42 44 42 44 43 16 43 45 43 46 44 47 44 42 44 42 45 47 45 43 45 48 46 49 46 50 46 51 47 52 47 48 47 48 48 52 48 44 48 48 49 44 49 45 49 50 50 49 50 53 50 53 51 49 51 47 51 53 52 47 52 46 52 48 53 50 53 51 53 51 54 50 54 54 54 51 55 54 55 55 55 56 56 57 56 58 56 56 57 58 57 59 57 59 58 58 58 60 58 59 59 60 59 61 59 61 60 60 60 62 60 61 60 62 60 63 60 63 61 62 61 64 61 63 62 64 62 65 62 65 63 64 63 66 63 65 64 66 64 67 64 67 65 66 65 68 65 67 65 68 65 69 65 69 66 68 66 70 66 69 66 70 66 71 66 71 67 70 67 72 67 71 68 72 68 73 68 73 69 72 69 74 69 73 70 74 70 75 70 75 71 74 71 76 71 75 72 76 72 77 72 77 73 76 73 78 73 77 74 78 74 79 74 79 75 78 75 80 75 79 75 80 75 81 75 81 76 80 76 82 76 81 77 82 77 83 77 56 78 10 78 57 78 57 79 10 79 11 79 54 80 83 80 55 80 55 81 83 81 82 81 1 82 0 82 50 82 50 83 0 83 54 83 0 84 8 84 54 84 54 85 8 85 10 85 54 86 10 86 83 86 83 87 10 87 56 87 83 88 56 88 59 88 59 89 61 89 83 89 83 90 61 90 63 90 83 91 63 91 65 91 79 92 73 92 77 92 77 93 73 93 75 93 79 94 81 94 73 94 73 95 81 95 83 95 73 96 83 96 71 96 38 97 36 97 40 97 40 98 36 98 34 98 40 99 34 99 42 99 42 100 34 100 32 100 50 101 53 101 1 101 1 102 53 102 46 102 1 103 46 103 14 103 14 104 46 104 42 104 14 105 42 105 30 105 30 106 42 106 32 106 65 107 67 107 83 107 83 108 67 108 69 108 83 109 69 109 71 109 55 110 9 110 51 110 51 111 9 111 6 111 51 112 6 112 52 112 52 113 6 113 4 113 60 114 58 114 82 114 82 115 58 115 57 115 82 116 57 116 55 116 55 117 57 117 11 117 55 118 11 118 9 118 82 119 80 119 78 119 22 120 20 120 24 120 24 121 20 121 18 121 78 122 76 122 82 122 82 123 76 123 74 123 82 124 74 124 72 124 72 125 70 125 82 125 82 126 70 126 68 126 82 127 68 127 66 127 66 128 64 128 82 128 82 129 64 129 62 129 82 130 62 130 60 130 26 131 24 131 28 131 28 132 24 132 18 132 28 133 18 133 12 133 12 134 18 134 17 134 12 135 17 135 4 135 4 136 17 136 44 136 4 137 44 137 52 137 23 138 25 138 21 138 21 139 25 139 27 139 21 140 27 140 19 140 19 141 27 141 29 141 19 142 29 142 16 142 16 143 29 143 13 143 16 144 13 144 45 144 45 145 13 145 3 145 45 146 3 146 48 146 48 147 3 147 5 147 43 148 47 148 2 148 2 149 47 149 49 149 2 150 49 150 7 150 33 151 35 151 37 151 2 152 15 152 43 152 43 153 15 153 31 153 43 154 31 154 41 154 41 155 31 155 33 155 41 156 33 156 39 156 39 157 33 157 37 157 7 158 49 158 5 158 5 158 49 158 48 158 84 159 85 159 86 159 86 160 85 160 87 160 84 161 88 161 85 161 85 162 88 162 89 162 85 163 89 163 90 163 90 164 89 164 91 164 90 165 91 165 92 165 92 166 91 166 93 166 92 167 93 167 94 167 94 168 93 168 95 168 94 169 95 169 96 169 96 170 95 170 97 170 96 171 97 171 98 171 98 172 97 172 99 172 98 173 99 173 100 173 100 174 99 174 101 174 100 175 101 175 102 175 102 176 101 176 103 176 102 177 103 177 104 177 104 178 103 178 105 178 104 179 105 179 106 179 106 180 105 180 107 180 106 181 107 181 108 181 108 182 107 182 109 182 108 183 109 183 110 183 110 184 109 184 111 184 110 185 111 185 112 185 112 186 111 186 113 186 112 186 113 186 114 186 114 187 113 187 115 187 114 188 115 188 116 188 116 189 115 189 117 189 116 190 117 190 118 190 118 191 117 191 119 191 118 192 119 192 120 192 120 193 119 193 121 193 120 194 121 194 122 194 122 195 121 195 123 195 122 196 123 196 124 196 124 197 123 197 125 197 124 198 125 198 126 198 126 199 125 199 127 199 126 200 127 200 128 200 128 201 127 201 129 201 128 202 129 202 130 202 130 203 129 203 131 203 130 204 131 204 132 204 132 205 131 205 133 205 132 206 133 206 134 206 134 207 133 207 135 207 134 208 135 208 136 208 136 209 135 209 137 209 136 210 137 210 87 210 87 211 137 211 138 211 87 212 138 212 86 212 94 213 139 213 92 213 92 214 139 214 140 214 92 215 140 215 90 215 90 216 140 216 141 216 90 217 141 217 85 217 85 218 141 218 142 218 85 219 142 219 87 219 87 220 142 220 143 220 87 221 143 221 136 221 136 222 143 222 144 222 136 223 144 223 134 223 108 224 145 224 106 224 106 225 145 225 146 225 106 226 146 226 104 226 104 227 146 227 147 227 104 228 147 228 102 228 102 229 147 229 148 229 102 230 148 230 100 230 100 231 148 231 149 231 100 232 149 232 98 232 98 233 149 233 150 233 98 234 150 234 96 234 96 235 150 235 151 235 96 236 151 236 94 236 94 237 151 237 152 237 94 238 152 238 139 238 144 239 153 239 134 239 134 240 153 240 154 240 134 241 154 241 132 241 132 242 154 242 155 242 132 243 155 243 130 243 130 244 155 244 156 244 130 245 156 245 128 245 128 246 156 246 157 246 128 247 157 247 126 247 126 248 157 248 158 248 126 249 158 249 124 249 124 250 158 250 159 250 124 251 159 251 122 251 122 252 159 252 160 252 122 253 160 253 120 253 160 254 161 254 120 254 120 255 161 255 162 255 120 256 162 256 118 256 118 257 162 257 163 257 118 258 163 258 116 258 116 259 163 259 164 259 116 260 164 260 114 260 114 261 164 261 165 261 114 219 165 219 112 219 112 220 165 220 166 220 112 262 166 262 110 262 110 263 166 263 167 263 110 264 167 264 108 264 108 265 167 265 168 265 108 266 168 266 145 266 169 267 170 267 171 267 169 268 172 268 173 268 174 269 172 269 169 269 171 270 174 270 169 270 169 271 175 271 176 271 177 272 175 272 169 272 173 273 177 273 169 273 169 274 178 274 179 274 180 275 178 275 169 275 176 276 180 276 169 276 169 277 181 277 182 277 183 278 181 278 169 278 179 279 183 279 169 279 169 280 184 280 185 280 186 281 184 281 169 281 182 282 186 282 169 282 169 283 187 283 188 283 189 284 187 284 169 284 185 285 189 285 169 285 169 286 190 286 191 286 192 287 190 287 169 287 188 288 192 288 169 288 169 289 193 289 194 289 195 290 193 290 169 290 191 291 195 291 169 291 194 292 170 292 169 292 170 293 196 293 171 293 171 294 196 294 197 294 171 295 197 295 174 295 174 296 197 296 198 296 174 296 198 296 172 296 172 297 198 297 199 297 172 298 199 298 173 298 173 299 199 299 200 299 173 300 200 300 177 300 177 301 200 301 201 301 177 302 201 302 175 302 175 303 201 303 202 303 175 303 202 303 176 303 176 304 202 304 203 304 176 305 203 305 180 305 180 306 203 306 204 306 180 307 204 307 178 307 178 308 204 308 205 308 178 309 205 309 179 309 179 310 205 310 206 310 179 310 206 310 183 310 183 311 206 311 207 311 183 312 207 312 181 312 181 313 207 313 208 313 181 314 208 314 182 314 182 315 208 315 209 315 182 316 209 316 186 316 186 317 209 317 210 317 186 318 210 318 184 318 184 319 210 319 211 319 184 320 211 320 185 320 185 321 211 321 212 321 185 322 212 322 189 322 189 323 212 323 213 323 189 323 213 323 187 323 187 324 213 324 214 324 187 325 214 325 188 325 188 326 214 326 215 326 188 326 215 326 192 326 192 327 215 327 216 327 192 328 216 328 190 328 190 329 216 329 217 329 190 329 217 329 191 329 191 330 217 330 218 330 191 331 218 331 195 331 195 332 218 332 219 332 195 333 219 333 193 333 193 334 219 334 220 334 193 335 220 335 194 335 194 336 220 336 221 336 194 337 221 337 170 337 170 338 221 338 196 338 211 339 222 339 212 339 212 340 222 340 223 340 212 341 223 341 213 341 213 342 223 342 224 342 213 343 224 343 214 343 214 344 224 344 225 344 214 345 225 345 215 345 204 346 226 346 205 346 205 347 226 347 227 347 205 348 227 348 206 348 206 349 227 349 228 349 206 350 228 350 207 350 200 351 229 351 201 351 201 352 229 352 230 352 201 353 230 353 202 353 202 354 230 354 231 354 202 355 231 355 203 355 203 356 231 356 232 356 203 357 232 357 204 357 204 358 232 358 233 358 204 359 233 359 226 359 196 360 234 360 197 360 197 361 234 361 235 361 197 362 235 362 198 362 198 363 235 363 236 363 198 364 236 364 199 364 199 365 236 365 237 365 199 366 237 366 200 366 200 367 237 367 238 367 200 368 238 368 229 368 225 369 239 369 215 369 215 370 239 370 240 370 215 371 240 371 216 371 216 372 240 372 241 372 216 373 241 373 217 373 217 374 241 374 242 374 217 375 242 375 218 375 218 376 242 376 243 376 218 377 243 377 219 377 228 378 244 378 207 378 207 379 244 379 245 379 207 380 245 380 208 380 208 381 245 381 246 381 208 382 246 382 209 382 209 383 246 383 247 383 209 384 247 384 210 384 210 385 247 385 248 385 210 386 248 386 211 386 211 387 248 387 249 387 211 388 249 388 222 388 243 389 250 389 219 389 219 390 250 390 251 390 219 391 251 391 220 391 220 392 251 392 252 392 220 393 252 393 221 393 221 394 252 394 253 394 221 395 253 395 196 395 196 396 253 396 254 396 196 397 254 397 234 397 253 398 255 398 254 398 254 399 255 399 256 399 254 400 256 400 234 400 234 401 256 401 257 401 234 402 257 402 235 402 235 403 257 403 258 403 235 404 258 404 236 404 236 405 258 405 259 405 236 406 259 406 237 406 237 407 259 407 260 407 237 408 260 408 238 408 238 409 260 409 261 409 238 410 261 410 229 410 229 411 261 411 262 411 229 412 262 412 230 412 230 413 262 413 263 413 230 413 263 413 231 413 231 414 263 414 264 414 231 414 264 414 232 414 232 415 264 415 265 415 232 416 265 416 233 416 233 417 265 417 266 417 233 418 266 418 226 418 226 419 266 419 267 419 226 420 267 420 227 420 227 421 267 421 268 421 227 422 268 422 228 422 228 423 268 423 269 423 228 424 269 424 244 424 244 425 269 425 270 425 244 426 270 426 245 426 245 427 270 427 271 427 245 427 271 427 246 427 246 428 271 428 272 428 246 429 272 429 247 429 247 430 272 430 273 430 247 431 273 431 248 431 248 432 273 432 274 432 248 433 274 433 249 433 249 434 274 434 275 434 249 434 275 434 222 434 222 435 275 435 276 435 222 435 276 435 223 435 223 436 276 436 277 436 223 437 277 437 224 437 224 438 277 438 278 438 224 439 278 439 225 439 225 440 278 440 279 440 225 441 279 441 239 441 239 442 279 442 280 442 239 443 280 443 240 443 240 444 280 444 281 444 240 445 281 445 241 445 241 446 281 446 282 446 241 447 282 447 242 447 242 448 282 448 283 448 242 449 283 449 243 449 243 450 283 450 284 450 243 450 284 450 250 450 250 451 284 451 285 451 250 452 285 452 251 452 251 453 285 453 286 453 251 454 286 454 252 454 252 455 286 455 287 455 252 456 287 456 253 456 253 457 287 457 255 457 288 458 259 458 289 458 289 459 259 459 258 459 289 460 258 460 290 460 290 461 258 461 257 461 290 462 257 462 291 462 291 463 257 463 256 463 291 464 256 464 292 464 292 465 256 465 255 465 292 466 255 466 293 466 293 467 255 467 287 467 293 468 287 468 294 468 294 469 287 469 286 469 294 470 286 470 295 470 295 471 286 471 285 471 295 472 285 472 296 472 296 473 285 473 284 473 296 474 284 474 297 474 297 475 284 475 283 475 297 476 283 476 298 476 299 477 270 477 300 477 300 478 270 478 269 478 300 479 269 479 301 479 301 480 269 480 268 480 301 481 268 481 302 481 302 482 268 482 267 482 302 483 267 483 303 483 303 484 267 484 266 484 303 485 266 485 304 485 304 486 266 486 265 486 304 487 265 487 305 487 305 488 265 488 264 488 305 489 264 489 306 489 306 490 264 490 263 490 306 491 263 491 307 491 307 492 263 492 262 492 307 493 262 493 308 493 308 494 262 494 261 494 308 495 261 495 288 495 288 496 261 496 260 496 288 497 260 497 259 497 283 498 282 498 298 498 298 499 282 499 281 499 298 500 281 500 309 500 309 501 281 501 280 501 309 502 280 502 310 502 310 503 280 503 279 503 310 504 279 504 311 504 311 505 279 505 278 505 311 506 278 506 312 506 312 507 278 507 277 507 312 508 277 508 313 508 313 509 277 509 276 509 313 510 276 510 314 510 314 511 276 511 275 511 314 512 275 512 315 512 315 513 275 513 274 513 315 514 274 514 316 514 316 515 274 515 273 515 316 516 273 516 317 516 317 517 273 517 272 517 317 518 272 518 299 518 299 519 272 519 271 519 299 520 271 520 270 520 293 521 157 521 292 521 292 522 157 522 156 522 292 523 156 523 291 523 291 524 156 524 155 524 291 524 155 524 290 524 290 525 155 525 154 525 290 526 154 526 289 526 289 527 154 527 153 527 289 528 153 528 288 528 288 529 153 529 144 529 288 530 144 530 308 530 308 531 144 531 143 531 308 532 143 532 307 532 307 533 143 533 142 533 307 533 142 533 306 533 306 534 142 534 141 534 306 535 141 535 305 535 305 536 141 536 140 536 305 537 140 537 304 537 304 538 140 538 139 538 304 539 139 539 303 539 303 540 139 540 152 540 303 541 152 541 302 541 302 542 152 542 151 542 302 542 151 542 301 542 301 543 151 543 150 543 301 544 150 544 300 544 300 545 150 545 149 545 300 546 149 546 299 546 299 547 149 547 148 547 299 548 148 548 317 548 317 549 148 549 147 549 317 550 147 550 316 550 316 551 147 551 146 551 316 552 146 552 315 552 315 553 146 553 145 553 315 554 145 554 314 554 314 555 145 555 168 555 314 556 168 556 313 556 313 557 168 557 167 557 313 558 167 558 312 558 312 559 167 559 166 559 312 560 166 560 311 560 311 561 166 561 165 561 311 561 165 561 310 561 310 562 165 562 164 562 310 563 164 563 309 563 309 564 164 564 163 564 309 565 163 565 298 565 298 566 163 566 162 566 298 567 162 567 297 567 297 568 162 568 161 568 297 569 161 569 296 569 296 570 161 570 160 570 296 571 160 571 295 571 295 572 160 572 159 572 295 573 159 573 294 573 294 574 159 574 158 574 294 575 158 575 293 575 293 576 158 576 157 576 84 577 86 577 138 577 84 578 113 578 88 578 88 579 113 579 111 579 88 580 111 580 109 580 103 581 101 581 105 581 105 582 101 582 99 582 105 583 99 583 97 583 97 584 95 584 105 584 105 585 95 585 93 585 105 586 93 586 91 586 109 587 107 587 88 587 88 588 107 588 105 588 88 589 105 589 89 589 89 590 105 590 91 590 135 591 133 591 123 591 123 592 133 592 131 592 119 593 117 593 137 593 135 594 123 594 137 594 137 595 123 595 121 595 137 596 121 596 119 596 84 597 138 597 113 597 113 598 138 598 137 598 113 599 137 599 115 599 115 600 137 600 117 600 131 601 129 601 123 601 123 602 129 602 127 602 123 603 127 603 125 603</p>
        </triangles>
      </mesh>
    </geometry>
  </library_geometries>
  <library_images />
  <library_visual_scenes>
    <visual_scene id="Scene">
      <node id="node_1" sid="node_1" type="NODE">
        <matrix>1 0 0 0 0 1 0 0 0 0 1 0 0 0 0 1</matrix>
        <instance_geometry url="#mesh_1" />
      </node>
    </visual_scene>
  </library_visual_scenes>
  <library_animations />
  <scene>
    <instance_visual_scene url="#Scene" />
  </scene>
</COLLADA>